  0
SECTION
  2
HEADER
  9
$ACADVER
  1
AC1015
  9
$ACADMAINTVER
 70
     6
  9
$DWGCODEPAGE
  3
ANSI_1252
  9
$INSBASE
 10
0.0
 20
0.0
 30
0.0
  9
$EXTMIN
 10
0.0
 20
0.0
 30
0.0
  9
$EXTMAX
 10
24.0
 20
18.0
 30
0.0
  9
$LIMMIN
 10
0.0
 20
0.0
  9
$LIMMAX
 10
24.0
 20
18.0
  9
$ORTHOMODE
 70
     0
  9
$REGENMODE
 70
     1
  9
$FILLMODE
 70
     1
  9
$QTEXTMODE
 70
     0
  9
$MIRRTEXT
 70
     1
  9
$LTSCALE
 40
1.0
  9
$ATTMODE
 70
     1
  9
$TEXTSIZE
 40
0.125
  9
$TRACEWID
 40
0.05
  9
$TEXTSTYLE
  7
Standard
  9
$CLAYER
  8
0
  9
$CELTYPE
  6
ByLayer
  9
$CECOLOR
 62
   256
  9
$CELTSCALE
 40
1.0
  9
$DISPSILH
 70
     0
  9
$DIMSCALE
 40
1.0
  9
$DIMASZ
 40
0.13
  9
$DIMEXO
 40
0.05
  9
$DIMDLI
 40
0.38
  9
$DIMRND
 40
0.0
  9
$DIMDLE
 40
0.0
  9
$DIMEXE
 40
0.125
  9
$DIMTP
 40
0.0
  9
$DIMTM
 40
0.0
  9
$DIMTXT
 40
0.125
  9
$DIMCEN
 40
0.09
  9
$DIMTSZ
 40
0.0
  9
$DIMTOL
 70
     0
  9
$DIMLIM
 70
     0
  9
$DIMTIH
 70
     1
  9
$DIMTOH
 70
     1
  9
$DIMSE1
 70
     0
  9
$DIMSE2
 70
     0
  9
$DIMTAD
 70
     0
  9
$DIMZIN
 70
     0
  9
$DIMBLK
  1

  9
$DIMASO
 70
     1
  9
$DIMSHO
 70
     1
  9
$DIMPOST
  1

  9
$DIMAPOST
  1

  9
$DIMALT
 70
     0
  9
$DIMALTD
 70
     2
  9
$DIMALTF
 40
25.4
  9
$DIMLFAC
 40
2.0
  9
$DIMTOFL
 70
     0
  9
$DIMTVP
 40
0.0
  9
$DIMTIX
 70
     0
  9
$DIMSOXD
 70
     0
  9
$DIMSAH
 70
     0
  9
$DIMBLK1
  1

  9
$DIMBLK2
  1

  9
$DIMSTYLE
  2
Standard
  9
$DIMCLRD
 70
     0
  9
$DIMCLRE
 70
     0
  9
$DIMCLRT
 70
     0
  9
$DIMTFAC
 40
1.0
  9
$DIMGAP
 40
0.06
  9
$DIMJUST
 70
     0
  9
$DIMSD1
 70
     0
  9
$DIMSD2
 70
     0
  9
$DIMTOLJ
 70
     1
  9
$DIMTZIN
 70
     0
  9
$DIMALTZ
 70
     0
  9
$DIMALTTZ
 70
     0
  9
$DIMUPT
 70
     0
  9
$DIMDEC
 70
     3
  9
$DIMTDEC
 70
     3
  9
$DIMALTU
 70
     2
  9
$DIMALTTD
 70
     2
  9
$DIMTXSTY
  7
Standard
  9
$DIMAUNIT
 70
     0
  9
$DIMADEC
 70
     2
  9
$DIMALTRND
 40
0.0
  9
$DIMAZIN
 70
     0
  9
$DIMDSEP
 70
    46
  9
$DIMATFIT
 70
     3
  9
$DIMFRAC
 70
     0
  9
$DIMLDRBLK
  1

  9
$DIMLUNIT
 70
     2
  9
$DIMLWD
 70
    -2
  9
$DIMLWE
 70
    -2
  9
$DIMTMOVE
 70
     0
  9
$LUNITS
 70
     2
  9
$LUPREC
 70
     2
  9
$SKETCHINC
 40
0.1
  9
$FILLETRAD
 40
0.5
  9
$AUNITS
 70
     0
  9
$AUPREC
 70
     2
  9
$MENU
  1
.
  9
$ELEVATION
 40
0.0
  9
$PELEVATION
 40
0.0
  9
$THICKNESS
 40
0.0
  9
$LIMCHECK
 70
     0
  9
$CHAMFERA
 40
0.0
  9
$CHAMFERB
 40
0.0
  9
$CHAMFERC
 40
0.0
  9
$CHAMFERD
 40
0.0
  9
$SKPOLY
 70
     0
  9
$TDCREATE
 40
2457121.935046331
  9
$TDUCREATE
 40
2457122.226712998
  9
$TDUPDATE
 40
2457121.935047963
  9
$TDUUPDATE
 40
2457122.22671463
  9
$TDINDWG
 40
0.0000000116
  9
$TDUSRTIMER
 40
0.0000000116
  9
$USRTIMER
 70
     1
  9
$ANGBASE
 50
0.0
  9
$ANGDIR
 70
     0
  9
$PDMODE
 70
     0
  9
$PDSIZE
 40
-1.0
  9
$PLINEWID
 40
0.0
  9
$SPLFRAME
 70
     0
  9
$SPLINETYPE
 70
     6
  9
$SPLINESEGS
 70
     8
  9
$HANDSEED
  5
104
  9
$SURFTAB1
 70
     6
  9
$SURFTAB2
 70
     6
  9
$SURFTYPE
 70
     6
  9
$SURFU
 70
     6
  9
$SURFV
 70
     6
  9
$UCSBASE
  2

  9
$UCSNAME
  2

  9
$UCSORG
 10
0.0
 20
0.0
 30
0.0
  9
$UCSXDIR
 10
1.0
 20
0.0
 30
0.0
  9
$UCSYDIR
 10
0.0
 20
1.0
 30
0.0
  9
$UCSORTHOREF
  2

  9
$UCSORTHOVIEW
 70
     0
  9
$UCSORGTOP
 10
0.0
 20
0.0
 30
0.0
  9
$UCSORGBOTTOM
 10
0.0
 20
0.0
 30
0.0
  9
$UCSORGLEFT
 10
0.0
 20
0.0
 30
0.0
  9
$UCSORGRIGHT
 10
0.0
 20
0.0
 30
0.0
  9
$UCSORGFRONT
 10
0.0
 20
0.0
 30
0.0
  9
$UCSORGBACK
 10
0.0
 20
0.0
 30
0.0
  9
$PUCSBASE
  2

  9
$PUCSNAME
  2

  9
$PUCSORG
 10
0.0
 20
0.0
 30
0.0
  9
$PUCSXDIR
 10
1.0
 20
0.0
 30
0.0
  9
$PUCSYDIR
 10
0.0
 20
1.0
 30
0.0
  9
$PUCSORTHOREF
  2

  9
$PUCSORTHOVIEW
 70
     0
  9
$PUCSORGTOP
 10
0.0
 20
0.0
 30
0.0
  9
$PUCSORGBOTTOM
 10
0.0
 20
0.0
 30
0.0
  9
$PUCSORGLEFT
 10
0.0
 20
0.0
 30
0.0
  9
$PUCSORGRIGHT
 10
0.0
 20
0.0
 30
0.0
  9
$PUCSORGFRONT
 10
0.0
 20
0.0
 30
0.0
  9
$PUCSORGBACK
 10
0.0
 20
0.0
 30
0.0
  9
$USERI1
 70
     0
  9
$USERI2
 70
     0
  9
$USERI3
 70
     0
  9
$USERI4
 70
     0
  9
$USERI5
 70
     0
  9
$USERR1
 40
0.0
  9
$USERR2
 40
0.0
  9
$USERR3
 40
0.0
  9
$USERR4
 40
0.0
  9
$USERR5
 40
0.0
  9
$WORLDVIEW
 70
     1
  9
$SHADEDGE
 70
     3
  9
$SHADEDIF
 70
    70
  9
$TILEMODE
 70
     1
  9
$MAXACTVP
 70
    64
  9
$PINSBASE
 10
0.0
 20
0.0
 30
0.0
  9
$PLIMCHECK
 70
     0
  9
$PEXTMIN
 10
1.0000000000E+20
 20
1.0000000000E+20
 30
1.0000000000E+20
  9
$PEXTMAX
 10
-1.0000000000E+20
 20
-1.0000000000E+20
 30
-1.0000000000E+20
  9
$PLIMMIN
 10
0.0
 20
0.0
  9
$PLIMMAX
 10
12.0
 20
9.0
  9
$UNITMODE
 70
     0
  9
$VISRETAIN
 70
     1
  9
$PLINEGEN
 70
     0
  9
$PSLTSCALE
 70
     1
  9
$TREEDEPTH
 70
  3020
  9
$CMLSTYLE
  2
Standard
  9
$CMLJUST
 70
     0
  9
$CMLSCALE
 40
1.0
  9
$PROXYGRAPHICS
 70
     1
  9
$MEASUREMENT
 70
     0
  9
$CELWEIGHT
370
    -1
  9
$ENDCAPS
280
     0
  9
$JOINSTYLE
280
     0
  9
$LWDISPLAY
290
     1
  9
$INSUNITS
 70
     1
  9
$HYPERLINKBASE
  1

  9
$STYLESHEET
  1

  9
$XEDIT
290
     1
  9
$CEPSNTYPE
380
     0
  9
$PSTYLEMODE
290
     1
  9
$FINGERPRINTGUID
  2
{12B1CCB9-3729-464E-86BC-BEEFDCCF3943}
  9
$VERSIONGUID
  2
{FAEB1C32-E019-11D5-929B-00C0DF256EC4}
  9
$EXTNAMES
290
     1
  9
$PSVPSCALE
 40
0.0
  9
$OLESTARTUP
290
     0
  0
ENDSEC
  0
SECTION
  2
CLASSES
  0
CLASS
  1
ACDBDICTIONARYWDFLT
  2
AcDbDictionaryWithDefault
  3
ObjectDBX Classes
 90
        0
280
     0
281
     0
  0
CLASS
  1
VISUALSTYLE
  2
AcDbVisualStyle
  3
ObjectDBX Classes
 90
     4095
280
     0
281
     0
  0
CLASS
  1
MATERIAL
  2
AcDbMaterial
  3
ObjectDBX Classes
 90
     1153
280
     0
281
     0
  0
CLASS
  1
SCALE
  2
AcDbScale
  3
ObjectDBX Classes
 90
     1153
280
     0
281
     0
  0
CLASS
  1
SUN
  2
AcDbSun
  3
SCENEOE
 90
     1153
280
     0
281
     0
  0
CLASS
  1
ACDBPLACEHOLDER
  2
AcDbPlaceHolder
  3
ObjectDBX Classes
 90
        0
280
     0
281
     0
  0
CLASS
  1
LAYOUT
  2
AcDbLayout
  3
ObjectDBX Classes
 90
        0
280
     0
281
     0
  0
ENDSEC
  0
SECTION
  2
TABLES
  0
TABLE
  2
VPORT
  5
8
330
0
100
AcDbSymbolTable
 70
     1
  0
VPORT
  5
29
330
8
100
AcDbSymbolTableRecord
100
AcDbViewportTableRecord
  2
*Active
 70
     0
 10
0.0
 20
0.0
 11
1.0
 21
1.0
 12
12.0
 22
9.0
 13
0.0
 23
0.0
 14
0.5
 24
0.5
 15
0.5
 25
0.5
 16
0.0
 26
0.0
 36
1.0
 17
0.0
 27
0.0
 37
0.0
 40
18.0
 41
1.3333333333
 42
50.0
 43
0.0
 44
0.0
 50
0.0
 51
0.0
 71
     0
 72
  2000
 73
     1
 74
     3
 75
     0
 76
     0
 77
     0
 78
     0
281
     0
 65
     1
110
0.0
120
0.0
130
0.0
111
1.0
121
0.0
131
0.0
112
0.0
122
1.0
132
0.0
 79
     0
146
0.0
  0
ENDTAB
  0
TABLE
  2
LTYPE
  5
5
330
0
100
AcDbSymbolTable
 70
     6
  0
LTYPE
  5
14
330
5
100
AcDbSymbolTableRecord
100
AcDbLinetypeTableRecord
  2
ByBlock
 70
     0
  3

 72
    65
 73
     0
 40
0.0
  0
LTYPE
  5
15
330
5
100
AcDbSymbolTableRecord
100
AcDbLinetypeTableRecord
  2
ByLayer
 70
     0
  3

 72
    65
 73
     0
 40
0.0
  0
LTYPE
  5
16
330
5
100
AcDbSymbolTableRecord
100
AcDbLinetypeTableRecord
  2
Continuous
 70
     0
  3
Solid line
 72
    65
 73
     0
 40
0.0
  0
LTYPE
  5
6A
330
5
100
AcDbSymbolTableRecord
100
AcDbLinetypeTableRecord
  2
HIDDEN
 70
     0
  3
Hidden __ __ __ __ __ __ __ __ __ __ __ __ __ __
 72
    65
 73
     2
 40
0.075
 49
0.05
 74
     0
 49
-0.025
 74
     0
  0
LTYPE
  5
6B
330
5
100
AcDbSymbolTableRecord
100
AcDbLinetypeTableRecord
  2
PHANTOM
 70
     0
  3
Phantom ______  __  __  ______  __  __  ______
 72
    65
 73
     6
 40
0.5
 49
0.25
 74
     0
 49
-0.05
 74
     0
 49
0.05
 74
     0
 49
-0.05
 74
     0
 49
0.05
 74
     0
 49
-0.05
 74
     0
  0
LTYPE
  5
6C
330
5
100
AcDbSymbolTableRecord
100
AcDbLinetypeTableRecord
  2
CENTER
 70
     0
  3
Center ____ _ ____ _ ____ _ ____ _ ____ _ ____
 72
    65
 73
     4
 40
0.4
 49
0.25
 74
     0
 49
-0.05
 74
     0
 49
0.05
 74
     0
 49
-0.05
 74
     0
  0
LTYPE
  5
6D
330
5
100
AcDbSymbolTableRecord
100
AcDbLinetypeTableRecord
  2
CENTERX2
 70
     0
  3
Center (2x) ________  __  ________  __  _____
 72
    65
 73
     4
 40
0.8
 49
0.5
 74
     0
 49
-0.1
 74
     0
 49
0.1
 74
     0
 49
-0.1
 74
     0
  0
LTYPE
  5
6E
330
5
100
AcDbSymbolTableRecord
100
AcDbLinetypeTableRecord
  2
DOT2
 70
     0
  3
Dot (.5x) ........................................
 72
    65
 73
     2
 40
0.025
 49
0.0
 74
     0
 49
-0.025
 74
     0
  0
ENDTAB
  0
TABLE
  2
LAYER
  5
2
330
0
100
AcDbSymbolTable
 70
     1
  0
LAYER
  5
10
330
2
100
AcDbSymbolTableRecord
100
AcDbLayerTableRecord
  2
0
 70
     0
 62
     7
  6
Continuous
370
    -3
390
F
  0
ENDTAB
  0
TABLE
  2
STYLE
  5
3
330
0
100
AcDbSymbolTable
 70
     1
  0
STYLE
  5
11
330
3
100
AcDbSymbolTableRecord
100
AcDbTextStyleTableRecord
  2
Standard
 70
     0
 40
0.0
 41
1.0
 50
0.0
 71
     0
 42
0.125
  3
txt
  4

  0
ENDTAB
  0
TABLE
  2
VIEW
  5
6
330
0
100
AcDbSymbolTable
 70
     0
  0
ENDTAB
  0
TABLE
  2
UCS
  5
7
330
0
100
AcDbSymbolTable
 70
     0
  0
ENDTAB
  0
TABLE
  2
APPID
  5
9
330
0
100
AcDbSymbolTable
 70
     1
  0
APPID
  5
12
330
9
100
AcDbSymbolTableRecord
100
AcDbRegAppTableRecord
  2
ACAD
 70
     0
  0
ENDTAB
  0
TABLE
  2
DIMSTYLE
  5
A
330
0
100
AcDbSymbolTable
 70
     1
100
AcDbDimStyleTable
  0
DIMSTYLE
105
27
330
A
100
AcDbSymbolTableRecord
100
AcDbDimStyleTableRecord
  2
Standard
 70
     0
178
     0
340
11
  0
ENDTAB
  0
TABLE
  2
BLOCK_RECORD
  5
1
330
0
100
AcDbSymbolTable
 70
     1
  0
BLOCK_RECORD
  5
1F
330
1
100
AcDbSymbolTableRecord
100
AcDbBlockTableRecord
  2
*Model_Space
340
22
  0
BLOCK_RECORD
  5
1B
330
1
100
AcDbSymbolTableRecord
100
AcDbBlockTableRecord
  2
*Paper_Space
340
1E
  0
BLOCK_RECORD
  5
23
330
1
100
AcDbSymbolTableRecord
100
AcDbBlockTableRecord
  2
*Paper_Space0
340
26
  0
ENDTAB
  0
ENDSEC
  0
SECTION
  2
BLOCKS
  0
BLOCK
  5
20
330
1F
100
AcDbEntity
  8
0
100
AcDbBlockBegin
  2
*Model_Space
 70
     0
 10
0.0
 20
0.0
 30
0.0
  3
*Model_Space
  1
*Model_Space
  0
ENDBLK
  5
21
330
1F
100
AcDbEntity
  8
0
100
AcDbBlockEnd
  0
BLOCK
  5
1C
330
1B
100
AcDbEntity
 67
     1
  8
0
100
AcDbBlockBegin
  2
*Paper_Space
 70
     0
 10
0.0
 20
0.0
 30
0.0
  3
*Paper_Space
  1
*Paper_Space
  0
ENDBLK
  5
1D
330
1B
100
AcDbEntity
 67
     1
  8
0
100
AcDbBlockEnd
  0
BLOCK
  5
24
330
23
100
AcDbEntity
  8
0
100
AcDbBlockBegin
  2
*Paper_Space0
 70
     0
 10
0.0
 20
0.0
 30
0.0
  3
*Paper_Space0
  1
*Paper_Space0
  0
ENDBLK
  5
25
330
23
100
AcDbEntity
  8
0
100
AcDbBlockEnd
  0
ENDSEC
  0
SECTION
  2
ENTITIES
  0
LINE
  5
6F
330
1F
100
AcDbEntity
  8
0
  6
Continuous
 62
     7
370
    15
100
AcDbLine
 10
4.8401007065
 20
8.1929546102
 30
0.0
 11
4.8401007065
 21
8.0155629269
 31
0.0
  0
LINE
  5
70
330
1F
100
AcDbEntity
  8
0
  6
Continuous
 62
     7
370
    15
100
AcDbLine
 10
4.72192493
 20
8.0155163747
 30
0.0
 11
4.72192493
 21
8.1929546102
 31
0.0
  0
LINE
  5
71
330
1F
100
AcDbEntity
  8
0
  6
Continuous
 62
     7
370
    15
100
AcDbLine
 10
4.72192493
 20
8.1929546102
 30
0.0
 11
4.6769160492
 21
8.1929546102
 31
0.0
  0
LINE
  5
72
330
1F
100
AcDbEntity
  8
0
  6
Continuous
 62
     7
370
    15
100
AcDbLine
 10
4.6769160492
 20
8.1929546102
 30
0.0
 11
4.6769160492
 21
8.0182448746
 31
0.0
  0
SPLINE
  5
73
330
1F
100
AcDbEntity
  8
0
  6
Continuous
 62
     7
370
    15
100
AcDbSpline
210
0.0
220
0.0
230
1.0
 70
     8
 71
     3
 72
    23
 73
    19
 74
     0
 42
0.000000001
 43
0.00000001
 40
0.0
 40
0.0
 40
0.0
 40
0.0
 40
0.0633726663582804
 40
0.1237794506563608
 40
0.1817170514265239
 40
0.2379365701196736
 40
0.2925350818152184
 40
0.346978192599105
 40
0.400969113007988
 40
0.455620426322882
 40
0.5115691454139513
 40
0.5693564255550945
 40
0.6301780852549235
 40
0.6945869471937
 40
0.7629699516943969
 40
0.8364663653715807
 40
0.915572713535086
 40
1.0
 40
1.0
 40
1.0
 40
1.0
 10
4.778463111231321
 20
7.897673067497903
 30
0.0
 10
4.782364613483023
 20
7.897718983964341
 30
0.0
 10
4.789985025139996
 20
7.897808667976687
 30
0.0
 10
4.801122691434424
 20
7.899031499323634
 30
0.0
 10
4.811655720681952
 20
7.901208169538596
 30
0.0
 10
4.821617196700193
 20
7.904214923711171
 30
0.0
 10
4.830966084771617
 20
7.908270035439044
 30
0.0
 10
4.839739409396227
 20
7.913180257711411
 30
0.0
 10
4.847880983592151
 20
7.919081047372209
 30
0.0
 10
4.8554970695818
 20
7.92578834658844
 30
0.0
 10
4.862362789419148
 20
7.933593473179147
 30
0.0
 10
4.86832917432058
 20
7.942563793901896
 30
0.0
 10
4.873361780742327
 20
7.952669266111977
 30
0.0
 10
4.877494693407513
 20
7.963865556729442
 30
0.0
 10
4.880767557111879
 20
7.976151169890032
 30
0.0
 10
4.883083866505021
 20
7.989564069098714
 30
0.0
 10
4.884680374113319
 20
8.004079219088364
 30
0.0
 10
4.884926925189965
 20
8.014144584110507
 30
0.0
 10
4.885054211777971
 20
8.019341016379805
 30
0.0
  0
LINE
  5
74
330
1F
100
AcDbEntity
  8
0
  6
Continuous
 62
     7
370
    15
100
AcDbLine
 10
4.8850542118
 20
8.0193410164
 30
0.0
 11
4.8851095872
 21
8.1929546102
 31
0.0
  0
LINE
  5
75
330
1F
100
AcDbEntity
  8
0
  6
Continuous
 62
     7
370
    15
100
AcDbLine
 10
4.8851095872
 20
8.1929546102
 30
0.0
 11
4.8401007065
 21
8.1929546102
 31
0.0
  0
LINE
  5
76
330
1F
100
AcDbEntity
  8
0
  6
Continuous
 62
     7
370
    15
100
AcDbLine
 10
4.508188433
 20
8.1980460128
 30
0.0
 11
4.5082117632
 21
8.1981013883
 31
0.0
  0
LINE
  5
77
330
1F
100
AcDbEntity
  8
0
  6
Continuous
 62
     7
370
    15
100
AcDbLine
 10
4.0258224989
 20
8.0562016392
 30
0.0
 11
4.0258224989
 21
8.0218352938
 31
0.0
  0
LINE
  5
78
330
1F
100
AcDbEntity
  8
0
  6
Continuous
 62
     7
370
    15
100
AcDbLine
 10
4.0258224989
 20
8.0218352938
 30
0.0
 11
4.0773895554
 21
8.0218352938
 31
0.0
  0
LINE
  5
79
330
1F
100
AcDbEntity
  8
0
  6
Continuous
 62
     7
370
    15
100
AcDbLine
 10
4.0773895554
 20
8.0218352938
 30
0.0
 11
4.0773895554
 21
7.9382319374
 31
0.0
  0
LINE
  5
7A
330
1F
100
AcDbEntity
  8
0
  6
Continuous
 62
     7
370
    15
100
AcDbLine
 10
4.1014461055
 20
8.1487136782
 30
0.0
 11
4.1110767801
 21
8.1857209405
 31
0.0
  0
LINE
  5
7B
330
1F
100
AcDbEntity
  8
0
  6
Continuous
 62
     7
370
    15
100
AcDbLine
 10
4.118795567
 20
7.9117521832
 30
0.0
 11
4.1188509424
 21
8.0562016392
 31
0.0
  0
LINE
  5
7C
330
1F
100
AcDbEntity
  8
0
  6
Continuous
 62
     7
370
    15
100
AcDbLine
 10
4.1188509424
 20
8.0562016392
 30
0.0
 11
4.0258224989
 21
8.0562016392
 31
0.0
  0
LINE
  5
7D
330
1F
100
AcDbEntity
  8
0
  6
Continuous
 62
     7
370
    15
100
AcDbLine
 10
2.8747823077
 20
8.15275993
 30
0.0
 11
2.8747823077
 21
8.1519936592
 31
0.0
  0
LINE
  5
7E
330
1F
100
AcDbEntity
  8
0
  6
Continuous
 62
     7
370
    15
100
AcDbLine
 10
2.8747823077
 20
8.1519936592
 30
0.0
 11
2.7608398579
 21
7.901039982
 31
0.0
  0
LINE
  5
7F
330
1F
100
AcDbEntity
  8
0
  6
Continuous
 62
     7
370
    15
100
AcDbLine
 10
2.7608398579
 20
7.901039982
 30
0.0
 11
2.8061881908
 21
7.901039982
 31
0.0
  0
LINE
  5
80
330
1F
100
AcDbEntity
  8
0
  6
Continuous
 62
     7
370
    15
100
AcDbLine
 10
2.8061881908
 20
7.901039982
 30
0.0
 11
2.9201306406
 21
8.1611524786
 31
0.0
  0
LINE
  5
81
330
1F
100
AcDbEntity
  8
0
  6
Continuous
 62
     7
370
    15
100
AcDbLine
 10
2.7467468847
 20
8.1877914846
 30
0.0
 11
2.7467468847
 21
8.15275993
 31
0.0
  0
LINE
  5
82
330
1F
100
AcDbEntity
  8
0
  6
Continuous
 62
     7
370
    15
100
AcDbLine
 10
2.7467468847
 20
8.15275993
 30
0.0
 11
2.8747823077
 21
8.15275993
 31
0.0
  0
LINE
  5
83
330
1F
100
AcDbEntity
  8
0
  6
Continuous
 62
     7
370
    15
100
AcDbLine
 10
2.6158776781
 20
7.8976730675
 30
0.0
 11
2.6158976523
 21
7.8976730675
 31
0.0
  0
CIRCLE
  5
84
330
1F
100
AcDbEntity
  8
0
  6
Continuous
 62
     7
370
    15
100
AcDbCircle
 10
1.1770526908
 20
7.9988716511
 30
0.0
 40
0.1284999999999989
  0
CIRCLE
  5
85
330
1F
100
AcDbEntity
  8
0
  6
Continuous
 62
     7
370
    15
100
AcDbCircle
 10
9.9570526908
 20
16.9988716511
 30
0.0
 40
0.1284999999999989
  0
LINE
  5
86
330
1F
100
AcDbEntity
  8
0
  6
Continuous
 62
     7
370
    15
100
AcDbLine
 10
10.5670526908
 20
7.4988716511
 30
0.0
 11
10.5670526908
 21
17.4988716511
 31
0.0
  0
LINE
  5
87
330
1F
100
AcDbEntity
  8
0
  6
Continuous
 62
     7
370
    15
100
AcDbLine
 10
0.5670526908
 20
7.4988716511
 30
0.0
 11
10.5670526908
 21
7.4988716511
 31
0.0
  0
LINE
  5
88
330
1F
100
AcDbEntity
  8
0
  6
Continuous
 62
     7
370
    15
100
AcDbLine
 10
0.5670526908
 20
17.4988716511
 30
0.0
 11
0.5670526908
 21
7.4988716511
 31
0.0
  0
CIRCLE
  5
89
330
1F
100
AcDbEntity
  8
0
  6
Continuous
 62
     7
370
    15
100
AcDbCircle
 10
5.5670526908
 20
12.4988716511
 30
0.0
 40
3.0
  0
LINE
  5
8A
330
1F
100
AcDbEntity
  8
0
  6
Continuous
 62
     7
370
    15
100
AcDbLine
 10
1.8849831114
 20
8.1918378988
 30
0.0
 11
1.8850384869
 21
7.9011485677
 31
0.0
  0
LINE
  5
8B
330
1F
100
AcDbEntity
  8
0
  6
Continuous
 62
     7
370
    15
100
AcDbLine
 10
2.0110854275
 20
8.0595274687
 30
0.0
 11
2.0110991766
 21
8.0607510878
 31
0.0
  0
LINE
  5
8C
330
1F
100
AcDbEntity
  8
0
  6
Continuous
 62
     7
370
    15
100
AcDbLine
 10
2.1606344598
 20
7.9359194842
 30
0.0
 11
2.1606344598
 21
8.0356926911
 31
0.0
  0
LINE
  5
8D
330
1F
100
AcDbEntity
  8
0
  6
Continuous
 62
     7
370
    15
100
AcDbLine
 10
2.1606344598
 20
8.0356926911
 30
0.0
 11
2.263314743
 21
8.0356926911
 31
0.0
  0
LINE
  5
8E
330
1F
100
AcDbEntity
  8
0
  6
Continuous
 62
     7
370
    15
100
AcDbLine
 10
2.263314743
 20
8.0356926911
 30
0.0
 11
2.263314743
 21
8.0707241917
 31
0.0
  0
LINE
  5
8F
330
1F
100
AcDbEntity
  8
0
  6
Continuous
 62
     7
370
    15
100
AcDbLine
 10
2.1606344598
 20
8.1563074237
 30
0.0
 11
2.2694449092
 21
8.1563074237
 31
0.0
  0
LINE
  5
90
330
1F
100
AcDbEntity
  8
0
  6
Continuous
 62
     7
370
    15
100
AcDbLine
 10
2.2694449092
 20
8.1563074237
 30
0.0
 11
2.2694449092
 21
8.1913389784
 31
0.0
  0
LINE
  5
91
330
1F
100
AcDbEntity
  8
0
  6
Continuous
 62
     7
370
    15
100
AcDbLine
 10
2.2759582107
 20
7.9008879837
 30
0.0
 11
2.2759582107
 21
7.9359194842
 31
0.0
  0
LINE
  5
92
330
1F
100
AcDbEntity
  8
0
  6
Continuous
 62
     7
370
    15
100
AcDbLine
 10
2.4337914767
 20
8.1877914846
 30
0.0
 11
2.3978356445
 21
8.1877914846
 31
0.0
  0
LINE
  5
93
330
1F
100
AcDbEntity
  8
0
  6
Continuous
 62
     7
370
    15
100
AcDbLine
 10
2.3978356445
 20
8.1877914846
 30
0.0
 11
2.332944105
 21
8.1546720343
 31
0.0
  0
LINE
  5
94
330
1F
100
AcDbEntity
  8
0
  6
Continuous
 62
     7
370
    15
100
AcDbLine
 10
2.332944105
 20
8.1546720343
 30
0.0
 11
2.342905625
 21
8.1223929593
 31
0.0
  0
LINE
  5
95
330
1F
100
AcDbEntity
  8
0
  6
Continuous
 62
     7
370
    15
100
AcDbLine
 10
2.342905625
 20
8.1223929593
 30
0.0
 11
2.3915638189
 21
8.1492124362
 31
0.0
  0
LINE
  5
96
330
1F
100
AcDbEntity
  8
0
  6
Continuous
 62
     7
370
    15
100
AcDbLine
 10
2.3915638189
 20
8.1492124362
 30
0.0
 11
2.3923300897
 21
8.1492124362
 31
0.0
  0
LINE
  5
97
330
1F
100
AcDbEntity
  8
0
  6
Continuous
 62
     7
370
    15
100
AcDbLine
 10
2.3923300897
 20
7.9013238421
 30
0.0
 11
2.4337914767
 21
7.9008879837
 31
0.0
  0
LINE
  5
98
330
1F
100
AcDbEntity
  8
0
  6
Continuous
 62
     7
370
    15
100
AcDbLine
 10
2.4337914767
 20
7.9008879837
 30
0.0
 11
2.4337914767
 21
8.1877914846
 31
0.0
  0
SPLINE
  5
99
330
1F
100
AcDbEntity
  8
0
  6
Continuous
 62
     7
370
    15
100
AcDbSpline
210
0.0
220
0.0
230
1.0
 70
     8
 71
     3
 72
    15
 73
    11
 74
     0
 42
0.000000001
 43
0.00000001
 40
0.0
 40
0.0
 40
0.0
 40
0.0
 40
0.103402664101898
 40
0.2097876866054631
 40
0.32184430069759
 40
0.4406044238132227
 40
0.5664574584716112
 40
0.7012197646693198
 40
0.8455240434288349
 40
1.0
 40
1.0
 40
1.0
 40
1.0
 10
4.32571422445803
 20
8.171218091521677
 30
0.0
 10
4.323342714338694
 20
8.17317124322796
 30
0.0
 10
4.318531294574823
 20
8.177133879796461
 30
0.0
 10
4.310223212197359
 20
8.181914566019985
 30
0.0
 10
4.301096828102494
 20
8.18603801558891
 30
0.0
 10
4.291024508406219
 20
8.189350726719908
 30
0.0
 10
4.280026597754682
 20
8.191801833376006
 30
0.0
 10
4.268135520951072
 20
8.193564563564964
 30
0.0
 10
4.255299252849856
 20
8.19456520696651
 30
0.0
 10
4.246433200014083
 20
8.194594324085724
 30
0.0
 10
4.241849255593193
 20
8.194609378277104
 30
0.0
  0
LINE
  5
9A
330
1F
100
AcDbEntity
  8
0
  6
Continuous
 62
     7
370
    15
100
AcDbLine
 10
4.1695690709
 20
8.1884566938
 30
0.0
 11
4.1696244464
 21
7.9012469228
 31
0.0
  0
LINE
  5
9B
330
1F
100
AcDbEntity
  8
0
  6
Continuous
 62
     7
370
    15
100
AcDbLine
 10
4.2146333272
 20
7.9012469228
 30
0.0
 11
4.2146333272
 21
8.0253827875
 31
0.0
  0
LINE
  5
9C
330
1F
100
AcDbEntity
  8
0
  6
Continuous
 62
     7
370
    15
100
AcDbLine
 10
4.3132979964
 20
7.9012205612
 30
0.0
 11
4.35978269
 21
7.9012469228
 31
0.0
  0
LINE
  5
9D
330
1F
100
AcDbEntity
  8
0
  6
Continuous
 62
     7
370
    15
100
AcDbLine
 10
4.9879869594
 20
7.9017153677
 30
0.0
 11
4.9879869594
 21
8.0166080778
 31
0.0
  0
SPLINE
  5
9E
330
1F
100
AcDbEntity
  8
0
  6
Continuous
 62
     7
370
    15
100
AcDbSpline
210
0.0
220
0.0
230
1.0
 70
     8
 71
     3
 72
    11
 73
     7
 74
     0
 42
0.000000001
 43
0.00000001
 40
0.0
 40
0.0
 40
0.0
 40
0.0
 40
0.2296464408885819
 40
0.4730603180193784
 40
0.7289228305226174
 40
1.0
 40
1.0
 40
1.0
 40
1.0
 10
4.987986959419743
 20
8.01660807779284
 30
0.0
 10
4.989867988057683
 20
8.016274104666177
 30
0.0
 10
4.993742814082525
 20
8.015586136531779
 30
0.0
 10
4.999783576625394
 20
8.015026298362454
 30
0.0
 10
5.00618190898039
 20
8.014675333399056
 30
0.0
 10
5.01056473068259
 20
8.014681670715596
 30
0.0
 10
5.012819415501333
 20
8.014684930864506
 30
0.0
  0
SPLINE
  5
9F
330
1F
100
AcDbEntity
  8
0
  6
Continuous
 62
     7
370
    15
100
AcDbSpline
210
0.0
220
0.0
230
1.0
 70
     8
 71
     3
 72
    15
 73
    11
 74
     0
 42
0.000000001
 43
0.00000001
 40
0.0
 40
0.0
 40
0.0
 40
0.0
 40
0.1408244397294
 40
0.2741641185664301
 40
0.4011394630752985
 40
0.5245310008860816
 40
0.6438924082821083
 40
0.7621727923584516
 40
0.8804637192981839
 40
1.0
 40
1.0
 40
1.0
 40
1.0
 10
5.122736291416054
 20
8.10885980337036
 30
0.0
 10
5.12259270848511
 20
8.112153505665946
 30
0.0
 10
5.122313173996783
 20
8.118565851338506
 30
0.0
 10
5.120911640613793
 20
8.127866799171944
 30
0.0
 10
5.118736307421445
 20
8.136587402278499
 30
0.0
 10
5.115854116224988
 20
8.144767407584402
 30
0.0
 10
5.111995543852857
 20
8.152303783533375
 30
0.0
 10
5.107527149963754
 20
8.159346732554518
 30
0.0
 10
5.102183493901017
 20
8.165783604599733
 30
0.0
 10
5.098044255977371
 20
8.169510949128512
 30
0.0
 10
5.095963799703089
 20
8.17138438029008
 30
0.0
  0
SPLINE
  5
A0
330
1F
100
AcDbEntity
  8
0
  6
Continuous
 62
     7
370
    15
100
AcDbSpline
210
0.0
220
0.0
230
1.0
 70
     8
 71
     3
 72
    15
 73
    11
 74
     0
 42
0.000000001
 43
0.00000001
 40
0.0
 40
0.0
 40
0.0
 40
0.0
 40
0.1048285008080536
 40
0.2129550962708346
 40
0.326329538553619
 40
0.4449824192080946
 40
0.571006877266544
 40
0.7054000124203051
 40
0.8478105531298379
 40
1.0
 40
1.0
 40
1.0
 40
1.0
 10
5.095963799703089
 20
8.17138438029008
 30
0.0
 10
5.093622990235337
 20
8.173273232120652
 30
0.0
 10
5.088867725190869
 20
8.177110362484248
 30
0.0
 10
5.080771432080809
 20
8.181858184536344
 30
0.0
 10
5.071880330999321
 20
8.185885721855986
 30
0.0
 10
5.062162604601774
 20
8.18923318174511
 30
0.0
 10
5.051580364882808
 20
8.1917673671854
 30
0.0
 10
5.040152794060502
 20
8.193465189110194
 30
0.0
 10
5.027902011558806
 20
8.194636213320894
 30
0.0
 10
5.019455480577768
 20
8.194728165060061
 30
0.0
 10
5.015092028669516
 20
8.194775667045507
 30
0.0
  0
LINE
  5
A1
330
1F
100
AcDbEntity
  8
0
  6
Continuous
 62
     7
370
    15
100
AcDbLine
 10
4.9429227032
 20
8.1890109897
 30
0.0
 11
4.9429780786
 21
7.9017153677
 31
0.0
  0
LINE
  5
A2
330
1F
100
AcDbEntity
  8
0
  6
Continuous
 62
     7
370
    15
100
AcDbLine
 10
4.9429780786
 20
7.9017153677
 30
0.0
 11
4.9879869594
 21
7.9017153677
 31
0.0
  0
LINE
  5
A3
330
1F
100
AcDbEntity
  8
0
  6
Continuous
 62
     7
370
    15
100
AcDbLine
 10
5.2502243472
 20
8.1742112894
 30
0.0
 11
5.2613841532
 21
8.1425318716
 31
0.0
  0
LINE
  5
A4
330
1F
100
AcDbEntity
  8
0
  6
Continuous
 62
     7
370
    15
100
AcDbLine
 10
5.3004435552
 20
8.0706688162
 30
0.0
 11
5.2816903286
 21
8.0707241917
 31
0.0
  0
LINE
  5
A5
330
1F
100
AcDbEntity
  8
0
  6
Continuous
 62
     7
370
    15
100
AcDbLine
 10
5.2816903286
 20
8.0707241917
 30
0.0
 11
5.2816903286
 21
8.0392401849
 31
0.0
  0
LINE
  5
A6
330
1F
100
AcDbEntity
  8
0
  6
Continuous
 62
     7
370
    15
100
AcDbLine
 10
5.2816903286
 20
8.0392401849
 30
0.0
 11
5.3012302332
 21
8.0392401849
 31
0.0
  0
LINE
  5
A7
330
1F
100
AcDbEntity
  8
0
  6
Continuous
 62
     7
370
    15
100
AcDbLine
 10
5.2498917697
 20
7.9485574306
 30
0.0
 11
5.2384030129
 21
7.9150418536
 31
0.0
  0
SPLINE
  5
A8
330
1F
100
AcDbEntity
  8
0
  6
Continuous
 62
     7
370
    15
100
AcDbSpline
210
0.0
220
0.0
230
1.0
 70
     8
 71
     3
 72
    15
 73
    11
 74
     0
 42
0.000000001
 43
0.00000001
 40
0.0
 40
0.0
 40
0.0
 40
0.0
 40
0.0909555861385547
 40
0.1933060108197241
 40
0.3060599968020995
 40
0.4314540727984638
 40
0.5647774899412423
 40
0.7040396766640079
 40
0.8488814843828156
 40
1.0
 40
1.0
 40
1.0
 40
1.0
 10
5.238403012889809
 20
7.915041853575008
 30
0.0
 10
5.240309746924621
 20
7.913890291224309
 30
0.0
 10
5.244362089013889
 20
7.911442899770148
 30
0.0
 10
5.251202262430043
 20
7.90835166779171
 30
0.0
 10
5.259026119741082
 20
7.905475595658144
 30
0.0
 10
5.267734398038218
 20
7.902842849900586
 30
0.0
 10
5.277229742919785
 20
7.900646029843501
 30
0.0
 10
5.287314858955011
 20
7.898971195222225
 30
0.0
 10
5.297930827120002
 20
7.897994209421213
 30
0.0
 10
5.305171656587588
 20
7.897781617683072
 30
0.0
 10
5.30886885284905
 20
7.897673067497903
 30
0.0
  0
LINE
  5
A9
330
1F
100
AcDbEntity
  8
0
  6
Continuous
 62
     7
370
    15
100
AcDbLine
 10
5.3498867491
 20
8.056257123
 30
0.0
 11
5.3498954099
 21
8.0570694588
 31
0.0
  0
CIRCLE
  5
AA
330
1F
100
AcDbEntity
  8
0
  6
Continuous
 62
     7
370
    15
100
AcDbCircle
 10
9.9570526908
 20
7.9988716511
 30
0.0
 40
0.1284999999999989
  0
LINE
  5
AB
330
1F
100
AcDbEntity
  8
0
  6
Continuous
 62
     7
370
    15
100
AcDbLine
 10
4.2146333272
 20
8.0253827875
 30
0.0
 11
4.2414972994
 21
8.0253827875
 31
0.0
  0
LINE
  5
AC
330
1F
100
AcDbEntity
  8
0
  6
Continuous
 62
     7
370
    15
100
AcDbLine
 10
4.296336542
 20
8.0411802746
 30
0.0
 11
4.2963708066
 21
8.0419723656
 31
0.0
  0
LINE
  5
AD
330
1F
100
AcDbEntity
  8
0
  6
Continuous
 62
     7
370
    15
100
AcDbLine
 10
2.1606344598
 20
8.0707241917
 30
0.0
 11
2.1606344598
 21
8.1563074237
 31
0.0
  0
LINE
  5
AE
330
1F
100
AcDbEntity
  8
0
  6
Continuous
 62
     7
370
    15
100
AcDbLine
 10
4.1696244464
 20
7.9012469228
 30
0.0
 11
4.2146333272
 21
7.9012469228
 31
0.0
  0
LINE
  5
AF
330
1F
100
AcDbEntity
  8
0
  6
Continuous
 62
     7
370
    15
100
AcDbLine
 10
2.1156255791
 20
8.1913389784
 30
0.0
 11
2.1156255791
 21
7.9008879837
 31
0.0
  0
LINE
  5
B0
330
1F
100
AcDbEntity
  8
0
  6
Continuous
 62
     7
370
    15
100
AcDbLine
 10
2.2694449092
 20
8.1913389784
 30
0.0
 11
2.1156255791
 21
8.1913389784
 31
0.0
  0
LINE
  5
B1
330
1F
100
AcDbEntity
  8
0
  6
Continuous
 62
     7
370
    15
100
AcDbLine
 10
10.5670526908
 20
17.4988716511
 30
0.0
 11
0.5670526908
 21
17.4988716511
 31
0.0
  0
LINE
  5
B2
330
1F
100
AcDbEntity
  8
0
  6
Continuous
 62
     7
370
    15
100
AcDbLine
 10
2.2759582107
 20
7.9359194842
 30
0.0
 11
2.1606344598
 21
7.9359194842
 31
0.0
  0
SPLINE
  5
B3
330
1F
100
AcDbEntity
  8
0
  6
Continuous
 62
     7
370
    15
100
AcDbSpline
210
0.0
220
0.0
230
1.0
 70
     8
 71
     3
 72
    15
 73
    11
 74
     0
 42
0.000000001
 43
0.00000001
 40
0.0
 40
0.0
 40
0.0
 40
0.0
 40
0.088076603799501
 40
0.1861251993862857
 40
0.2932440946623889
 40
0.411243188925432
 40
0.5392388845816275
 40
0.6792122096984331
 40
0.8316232926284706
 40
0.9999999999999999
 40
0.9999999999999999
 40
0.9999999999999999
 40
0.9999999999999999
 10
2.043844314835597
 20
7.925443291821288
 30
0.0
 10
2.045262607324572
 20
7.926779874879331
 30
0.0
 10
2.048259770713153
 20
7.929604368302588
 30
0.0
 10
2.052294759797294
 20
7.934701993952515
 30
0.0
 10
2.056281936254392
 20
7.940629132736976
 30
0.0
 10
2.060268347926392
 20
7.94734889474712
 30
0.0
 10
2.063768256324508
 20
7.955160714224523
 30
0.0
 10
2.066251384668378
 20
7.964143258513323
 30
0.0
 10
2.067860726660404
 20
7.974221985425988
 30
0.0
 10
2.068177777921326
 20
7.981309808373396
 30
0.0
 10
2.068344193380381
 20
7.985030100499213
 30
0.0
  0
LINE
  5
B4
330
1F
100
AcDbEntity
  8
0
  6
Continuous
 62
     7
370
    15
100
AcDbLine
 10
2.9201306406
 20
8.1611524786
 30
0.0
 11
2.9201306406
 21
8.1877914846
 31
0.0
  0
LINE
  5
B5
330
1F
100
AcDbEntity
  8
0
  6
Continuous
 62
     7
370
    15
100
AcDbLine
 10
2.9201306406
 20
8.1877914846
 30
0.0
 11
2.7467468847
 21
8.1877914846
 31
0.0
  0
SPLINE
  5
B6
330
1F
100
AcDbEntity
  8
0
  6
Continuous
 62
     7
370
    15
100
AcDbSpline
210
0.0
220
0.0
230
1.0
 70
     8
 71
     3
 72
    15
 73
    11
 74
     0
 42
0.000000001
 43
0.00000001
 40
0.0
 40
0.0
 40
0.0
 40
0.0
 40
0.0873539273516075
 40
0.1856059822263997
 40
0.294887950521222
 40
0.4142424157943442
 40
0.5447446826463038
 40
0.686278607706088
 40
0.8380444214856052
 40
1.0
 40
1.0
 40
1.0
 40
1.0
 10
1.885038486879786
 20
7.901148567714086
 30
0.0
 10
1.886755332943553
 20
7.900901736508548
 30
0.0
 10
1.890403215868317
 20
7.900377279855741
 30
0.0
 10
1.896230962566688
 20
7.899805640995126
 30
0.0
 10
1.902695456389294
 20
7.899226777734953
 30
0.0
 10
1.90981558367973
 20
7.898837715950506
 30
0.0
 10
1.917570160435405
 20
7.898326507400688
 30
0.0
 10
1.925983147258285
 20
7.898129958760699
 30
0.0
 10
1.935015571302342
 20
7.897797508256359
 30
0.0
 10
1.941243799475459
 20
7.897715436324361
 30
0.0
 10
1.944459060919766
 20
7.897673067497903
 30
0.0
  0
LINE
  5
B7
330
1F
100
AcDbEntity
  8
0
  6
Continuous
 62
     7
370
    15
100
AcDbLine
 10
2.263314743
 20
8.0707241917
 30
0.0
 11
2.1606344598
 21
8.0707241917
 31
0.0
  0
LINE
  5
B8
330
1F
100
AcDbEntity
  8
0
  6
Continuous
 62
     7
370
    15
100
AcDbLine
 10
2.3923300897
 20
8.1492124362
 30
0.0
 11
2.3923300897
 21
7.9013238421
 31
0.0
  0
CIRCLE
  5
B9
330
1F
100
AcDbEntity
  8
0
  6
Continuous
 62
     7
370
    15
100
AcDbCircle
 10
1.1770526908
 20
16.9988716511
 30
0.0
 40
0.1284999999999989
  0
LINE
  5
BA
330
1F
100
AcDbEntity
  8
0
  6
Continuous
 62
     7
370
    15
100
AcDbLine
 10
2.1156255791
 20
7.9008879837
 30
0.0
 11
2.2759582107
 21
7.9008879837
 31
0.0
  0
SPLINE
  5
BB
330
1F
100
AcDbEntity
  8
0
  6
Continuous
 62
     7
370
    15
100
AcDbSpline
210
0.0
220
0.0
230
1.0
 70
     8
 71
     3
 72
    23
 73
    19
 74
     0
 42
0.000000001
 43
0.00000001
 40
0.0
 40
0.0
 40
0.0
 40
0.0
 40
0.0843638326817758
 40
0.1643259599918596
 40
0.2403350357825561
 40
0.312363803269857
 40
0.3810413555527911
 40
0.4462719326153304
 40
0.5085056944267218
 40
0.5684338709637484
 40
0.6255650257782653
 40
0.6801152734343184
 40
0.7325105952269462
 40
0.7839155388153051
 40
0.8354931167994755
 40
0.8881125957543602
 40
0.9427465193112312
 40
1.0
 40
1.0
 40
1.0
 40
1.0
 10
2.710440557775801
 20
8.048219832492547
 30
0.0
 10
2.710391261251242
 20
8.053654188720746
 30
0.0
 10
2.710295240261384
 20
8.064239362197927
 30
0.0
 10
2.709129980784342
 20
8.079683151357589
 30
0.0
 10
2.707404805133637
 20
8.094269699766405
 30
0.0
 10
2.704937353288571
 20
8.108018775768171
 30
0.0
 10
2.70165494375621
 20
8.12087884017324
 30
0.0
 10
2.697754403463605
 20
8.132905724816593
 30
0.0
 10
2.693077230771703
 20
8.144045964753353
 30
0.0
 10
2.687752197161857
 20
8.154308804361335
 30
0.0
 10
2.681668570167049
 20
8.16356458949661
 30
0.0
 10
2.674832331628943
 20
8.171656278753469
 30
0.0
 10
2.667296038043058
 20
8.178575193985175
 30
0.0
 10
2.658994809853127
 20
8.184221378006654
 30
0.0
 10
2.649996398128295
 20
8.188706675203925
 30
0.0
 10
2.640252752725385
 20
8.191916725052051
 30
0.0
 10
2.629815506208022
 20
8.193938958349294
 30
0.0
 10
2.622612254346138
 20
8.194309110129767
 30
0.0
 10
2.618926305564403
 20
8.194498519098168
 30
0.0
  0
SPLINE
  5
BC
330
1F
100
AcDbEntity
  8
0
  6
Continuous
 62
     7
370
    15
100
AcDbSpline
210
0.0
220
0.0
230
1.0
 70
     8
 71
     3
 72
    23
 73
    19
 74
     0
 42
0.000000001
 43
0.00000001
 40
0.0
 40
0.0
 40
0.0
 40
0.0
 40
0.0595318887744469
 40
0.1167777815900139
 40
0.1726875747047028
 40
0.2278036738152488
 40
0.2828903750577006
 40
0.3383638737332108
 40
0.3944125637945464
 40
0.4522832316002067
 40
0.5112610859693013
 40
0.571584065028858
 40
0.6339439301279427
 40
0.698842786718099
 40
0.7675313810158355
 40
0.8404464591968585
 40
0.9176350247298587
 40
0.9999999999999999
 40
0.9999999999999999
 40
0.9999999999999999
 40
0.9999999999999999
 10
5.403099154944372
 20
8.125654968979115
 30
0.0
 10
5.403057636935613
 20
8.128023447109806
 30
0.0
 10
5.402976195189702
 20
8.13266945494763
 30
0.0
 10
5.401987482667144
 20
8.139480391302289
 30
0.0
 10
5.400442272742845
 20
8.14599676537524
 30
0.0
 10
5.398283769045866
 20
8.152253273255974
 30
0.0
 10
5.395424931519317
 20
8.158201018485999
 30
0.0
 10
5.391987939918162
 20
8.163876158666637
 30
0.0
 10
5.387895425809797
 20
8.16924072262257
 30
0.0
 10
5.38319517661196
 20
8.17426951412097
 30
0.0
 10
5.377879424523946
 20
8.178919126461281
 30
0.0
 10
5.371827603737099
 20
8.182893340408798
 30
0.0
 10
5.365207969809309
 20
8.186356233648526
 30
0.0
 10
5.357928745344759
 20
8.189170215494462
 30
0.0
 10
5.350030585023779
 20
8.191449367362727
 30
0.0
 10
5.341476283782804
 20
8.193081971592193
 30
0.0
 10
5.33228469725017
 20
8.194136719734248
 30
0.0
 10
5.32594401659024
 20
8.194375338797025
 30
0.0
 10
5.322670820626542
 20
8.194498519098168
 30
0.0
  0
SPLINE
  5
BD
330
1F
100
AcDbEntity
  8
0
  6
Continuous
 62
     7
370
    15
100
AcDbSpline
210
0.0
220
0.0
230
1.0
 70
     8
 71
     3
 72
    23
 73
    19
 74
     0
 42
0.000000001
 43
0.00000001
 40
0.0
 40
0.0
 40
0.0
 40
0.0
 40
0.0737491414977252
 40
0.1446155666167658
 40
0.2126882205818986
 40
0.2796728991847245
 40
0.3439459739088683
 40
0.4073527218361775
 40
0.4692447197791325
 40
0.5305136725364177
 40
0.5905987025677948
 40
0.650202894583328
 40
0.7084914644312621
 40
0.7659193788276093
 40
0.8233188565228345
 40
0.8813301693561957
 40
0.9398911987969119
 40
1.0
 40
1.0
 40
1.0
 40
1.0
 10
2.011099176596556
 20
8.06075108775758
 30
0.0
 10
2.013081581296123
 20
8.06153926176373
 30
0.0
 10
2.016968902193285
 20
8.063084801524296
 30
0.0
 10
2.022516403054173
 20
8.065754908416922
 30
0.0
 10
2.027717012791389
 20
8.068661750487575
 30
0.0
 10
2.0325757425161
 20
8.071775714602541
 30
0.0
 10
2.037037546554914
 20
8.075216498096543
 30
0.0
 10
2.041201411615202
 20
8.078787931234523
 30
0.0
 10
2.045002823257973
 20
8.082627956554488
 30
0.0
 10
2.048367666881907
 20
8.086731059095744
 30
0.0
 10
2.051367028367397
 20
8.091024292698922
 30
0.0
 10
2.05403560297277
 20
8.095430939034697
 30
0.0
 10
2.056272213089975
 20
8.099991475249729
 30
0.0
 10
2.058020332403162
 20
8.104687084082881
 30
0.0
 10
2.059514350686999
 20
8.109463807844984
 30
0.0
 10
2.060475590793434
 20
8.114409758209858
 30
0.0
 10
2.061116470509579
 20
8.11948556454446
 30
0.0
 10
2.061204577737612
 20
8.12291842121859
 30
0.0
 10
2.061249205928498
 20
8.124657236368694
 30
0.0
  0
SPLINE
  5
BE
330
1F
100
AcDbEntity
  8
0
  6
Continuous
 62
     7
370
    15
100
AcDbSpline
210
0.0
220
0.0
230
1.0
 70
     8
 71
     3
 72
    15
 73
    11
 74
     0
 42
0.000000001
 43
0.00000001
 40
0.0
 40
0.0
 40
0.0
 40
0.0
 40
0.1832134461873816
 40
0.3513448261031134
 40
0.5042570484068926
 40
0.6414260855665564
 40
0.7610468271634748
 40
0.8600299387617134
 40
0.940171371138292
 40
1.0
 40
1.0
 40
1.0
 40
1.0
 10
4.294784513534978
 20
7.971338991900658
 30
0.0
 10
4.295675163557471
 20
7.966993839557804
 30
0.0
 10
4.297383145606735
 20
7.958661226280445
 30
0.0
 10
4.300067234866215
 20
7.946752254443235
 30
0.0
 10
4.302573572349821
 20
7.935945543907247
 30
0.0
 10
4.305075111252069
 20
7.926347268800249
 30
0.0
 10
4.307359144976528
 20
7.918041554753036
 30
0.0
 10
4.309467303627049
 20
7.911124378544053
 30
0.0
 10
4.311325561926214
 20
7.905639272163556
 30
0.0
 10
4.312707361658527
 20
7.902543720133078
 30
0.0
 10
4.313297996417234
 20
7.901220561223844
 30
0.0
  0
SPLINE
  5
BF
330
1F
100
AcDbEntity
  8
0
  6
Continuous
 62
     7
370
    15
100
AcDbSpline
210
0.0
220
0.0
230
1.0
 70
     8
 71
     3
 72
    23
 73
    19
 74
     0
 42
0.000000001
 43
0.00000001
 40
0.0
 40
0.0
 40
0.0
 40
0.0
 40
0.0627201577131431
 40
0.1239777343822723
 40
0.1840543381576692
 40
0.2436633752594605
 40
0.3027331019323898
 40
0.3619038989232796
 40
0.4213304870264778
 40
0.4813841337827499
 40
0.5409777471085936
 40
0.6001834897796026
 40
0.6594396731606406
 40
0.7204500776176657
 40
0.7841545937313533
 40
0.8516735685799791
 40
0.9231733378901358
 40
1.0
 40
1.0
 40
1.0
 40
1.0
 10
5.012819415501333
 20
8.014684930864506
 30
0.0
 10
5.016239666188296
 20
8.014686709958436
 30
0.0
 10
5.023000410208238
 20
8.014690226659333
 30
0.0
 10
5.033000830405635
 20
8.015629068147808
 30
0.0
 10
5.042751577936174
 20
8.017154664755827
 30
0.0
 10
5.052233975850713
 20
8.01944140137463
 30
0.0
 10
5.061473895158135
 20
8.022396313332099
 30
0.0
 10
5.070478689231017
 20
8.025985593659087
 30
0.0
 10
5.07920072369563
 20
8.030339091858531
 30
0.0
 10
5.087598639583256
 20
8.035327666665887
 30
0.0
 10
5.095501353768134
 20
8.041084693377135
 30
0.0
 10
5.102389524250256
 20
8.047971290444769
 30
0.0
 10
5.108360671553978
 20
8.055759597721131
 30
0.0
 10
5.113224849529541
 20
8.064563643801545
 30
0.0
 10
5.117193660862769
 20
8.074287497697542
 30
0.0
 10
5.120076390926415
 20
8.08497674261641
 30
0.0
 10
5.122054200923153
 20
8.096598269118118
 30
0.0
 10
5.122503548729711
 20
8.10467592681696
 30
0.0
 10
5.122736291416054
 20
8.10885980337036
 30
0.0
  0
SPLINE
  5
C0
330
1F
100
AcDbEntity
  8
0
  6
Continuous
 62
     7
370
    15
100
AcDbSpline
210
0.0
220
0.0
230
1.0
 70
     8
 71
     3
 72
    23
 73
    19
 74
     0
 42
0.000000001
 43
0.00000001
 40
0.0
 40
0.0
 40
0.0
 40
0.0
 40
0.0828127412702091
 40
0.1625411420634971
 40
0.2392080272334581
 40
0.3129006012686096
 40
0.3836957192031853
 40
0.4512503940916029
 40
0.5165218460580335
 40
0.5786826585278072
 40
0.6385266026119889
 40
0.6958885028816824
 40
0.750600787650351
 40
0.8040431192842
 40
0.8550123489965322
 40
0.9044383554877775
 40
0.9528961487176808
 40
1.0
 40
1.0
 40
1.0
 40
1.0
 10
1.944459060919766
 20
7.897673067497903
 30
0.0
 10
1.947378821588429
 20
7.897668486989019
 30
0.0
 10
1.953109597147325
 20
7.897659496571194
 30
0.0
 10
1.961535470313267
 20
7.898038431202046
 30
0.0
 10
1.969634005352559
 20
7.898503647556899
 30
0.0
 10
1.977396951081481
 20
7.899235249574038
 30
0.0
 10
1.984819950719143
 20
7.900138063193248
 30
0.0
 10
1.991887850361349
 20
7.901403919429831
 30
0.0
 10
1.998628325621245
 20
7.902753244527112
 30
0.0
 10
2.005039355284334
 20
7.904347492213439
 30
0.0
 10
2.011068403594188
 20
7.906261010096625
 30
0.0
 10
2.016785332467057
 20
7.908278454977232
 30
0.0
 10
2.022157814562441
 20
7.910567101241583
 30
0.0
 10
2.027163598421351
 20
7.913106157984713
 30
0.0
 10
2.031857085392415
 20
7.915829309074511
 30
0.0
 10
2.036210709772782
 20
7.918767819283383
 30
0.0
 10
2.040195687941889
 20
7.921979968515445
 30
0.0
 10
2.042639648089593
 20
7.924299806740804
 30
0.0
 10
2.043844314835597
 20
7.925443291821288
 30
0.0
  0
SPLINE
  5
C1
330
1F
100
AcDbEntity
  8
0
  6
Continuous
 62
     7
370
    15
100
AcDbSpline
210
0.0
220
0.0
230
1.0
 70
     8
 71
     3
 72
    23
 73
    19
 74
     0
 42
0.000000001
 43
0.00000001
 40
0.0
 40
0.0
 40
0.0
 40
0.0
 40
0.0550543748120946
 40
0.1077479827303454
 40
0.1587980168602231
 40
0.2092560001848669
 40
0.2597924025097445
 40
0.3102873040638172
 40
0.3625570393976058
 40
0.4172676260611856
 40
0.4741654898938998
 40
0.5348357471773812
 40
0.5989173914521962
 40
0.6683985541844494
 40
0.7425252382508842
 40
0.8225206258160244
 40
0.9082534279233259
 40
1.0
 40
1.0
 40
1.0
 40
1.0
 10
4.780015139736419
 20
7.932039412967962
 30
0.0
 10
4.777905705190201
 20
7.932063898098816
 30
0.0
 10
4.773777290003712
 20
7.932111818422416
 30
0.0
 10
4.767745539619216
 20
7.933019400137756
 30
0.0
 10
4.762041981231532
 20
7.934587544986035
 30
0.0
 10
4.756630640616006
 20
7.936764267516003
 30
0.0
 10
4.751514586899699
 20
7.939525808249235
 30
0.0
 10
4.746741088838013
 20
7.942967466020058
 30
0.0
 10
4.742293902095247
 20
7.947054070792452
 30
0.0
 10
4.738121779982722
 20
7.951756679969368
 30
0.0
 10
4.734372983245565
 20
7.957204175720529
 30
0.0
 10
4.731131442155203
 20
7.963371007625659
 30
0.0
 10
4.728325041174194
 20
7.970271182503818
 30
0.0
 10
4.726121278557604
 20
7.977920804266441
 30
0.0
 10
4.724266589241993
 20
7.986283764618356
 30
0.0
 10
4.722976736241817
 20
7.995382328101629
 30
0.0
 10
4.722134654375208
 20
8.005209478316306
 30
0.0
 10
4.721996399663982
 20
8.012003999968183
 30
0.0
 10
4.721924929974127
 20
8.015516374706523
 30
0.0
  0
SPLINE
  5
C2
330
1F
100
AcDbEntity
  8
0
  6
Continuous
 62
     7
370
    15
100
AcDbSpline
210
0.0
220
0.0
230
1.0
 70
     8
 71
     3
 72
    15
 73
    11
 74
     0
 42
0.000000001
 43
0.00000001
 40
0.0
 40
0.0
 40
0.0
 40
0.0
 40
0.0670478430511492
 40
0.1523988293647343
 40
0.2561711971925035
 40
0.3776734963014731
 40
0.5145753531675148
 40
0.6641427015085142
 40
0.8260538027057683
 40
1.0
 40
1.0
 40
1.0
 40
1.0
 10
4.359782690015158
 20
7.901246922757117
 30
0.0
 10
4.359005728075035
 20
7.902927227699556
 30
0.0
 10
4.357239704221811
 20
7.906746537830211
 30
0.0
 10
4.354957259950877
 20
7.913446554238822
 30
0.0
 10
4.352398862539308
 20
7.921626287429962
 30
0.0
 10
4.349815041039419
 20
7.931283297981404
 30
0.0
 10
4.346990569655552
 20
7.942180691962112
 30
0.0
 10
4.344104212696742
 20
7.954212747824523
 30
0.0
 10
4.340902370317488
 20
7.967219685652192
 30
0.0
 10
4.338820619477771
 20
7.976250894485854
 30
0.0
 10
4.337742445372551
 20
7.980928310878594
 30
0.0
  0
SPLINE
  5
C3
330
1F
100
AcDbEntity
  8
0
  6
Continuous
 62
     7
370
    15
100
AcDbSpline
210
0.0
220
0.0
230
1.0
 70
     8
 71
     3
 72
    23
 73
    19
 74
     0
 42
0.000000001
 43
0.00000001
 40
0.0
 40
0.0
 40
0.0
 40
0.0
 40
0.0804682823361737
 40
0.1564789182240679
 40
0.2281323449993896
 40
0.2965633831180102
 40
0.3615806701485773
 40
0.4241436657112784
 40
0.4849267642447298
 40
0.5446646715855615
 40
0.6030715705347137
 40
0.6597243816126883
 40
0.715454625338858
 40
0.7708622762461356
 40
0.826427098139664
 40
0.8824644934083767
 40
0.9403966428911974
 40
1.0
 40
1.0
 40
1.0
 40
1.0
 10
5.30886885284905
 20
7.897673067497903
 30
0.0
 10
5.312862727788739
 20
7.89782743551456
 30
0.0
 10
5.320629231707315
 20
7.898127620128345
 30
0.0
 10
5.331903404000431
 20
7.899373596324954
 30
0.0
 10
5.342445269449366
 20
7.901439046099814
 30
0.0
 10
5.35226938531025
 20
7.904175725510297
 30
0.0
 10
5.361368628001541
 20
7.907677987941979
 30
0.0
 10
5.36973503390141
 20
7.911897877640468
 30
0.0
 10
5.377384914669697
 20
7.916847662776027
 30
0.0
 10
5.384252999692626
 20
7.922514343998345
 30
0.0
 10
5.390346668072077
 20
7.928717541311766
 30
0.0
 10
5.395650279330111
 20
7.935355345837117
 30
0.0
 10
5.400166315176489
 20
7.942375073384941
 30
0.0
 10
5.403910582349852
 20
7.94977642771638
 30
0.0
 10
5.406800020448395
 20
7.957570911940392
 30
0.0
 10
5.408843350626142
 20
7.965750387226486
 30
0.0
 10
5.410160687793744
 20
7.974289772666789
 30
0.0
 10
5.410330000628547
 20
7.980128958830668
 30
0.0
 10
5.410415860754127
 20
7.983090064867839
 30
0.0
  0
SPLINE
  5
C4
330
1F
100
AcDbEntity
  8
0
  6
Continuous
 62
     7
370
    15
100
AcDbSpline
210
0.0
220
0.0
230
1.0
 70
     8
 71
     3
 72
    23
 73
    19
 74
     0
 42
0.000000001
 43
0.00000001
 40
0.0
 40
0.0
 40
0.0
 40
0.0
 40
0.0635874246455895
 40
0.1241740751431636
 40
0.1826915913866981
 40
0.2395473191804926
 40
0.2955686681026529
 40
0.3516205655930963
 40
0.4082338137585577
 40
0.4663215880534902
 40
0.5255023243444579
 40
0.585919725843268
 40
0.647868341008156
 40
0.7117950617733894
 40
0.7788461499723615
 40
0.8488281254444404
 40
0.9223387207865738
 40
1.0
 40
1.0
 40
1.0
 40
1.0
 10
4.508211763213748
 20
8.198101388283119
 30
0.0
 10
4.503503089995719
 20
8.19791782136251
 30
0.0
 10
4.49430795203788
 20
8.197559350285557
 30
0.0
 10
4.480911831440633
 20
8.195457123188005
 30
0.0
 10
4.468272560619112
 20
8.192209357663273
 30
0.0
 10
4.456368365191572
 20
8.187718091193679
 30
0.0
 10
4.445265307060292
 20
8.181891858729422
 30
0.0
 10
4.434897394670642
 20
8.174877478809163
 30
0.0
 10
4.425289770608525
 20
8.166609693187759
 30
0.0
 10
4.416565083351693
 20
8.157104454455085
 30
0.0
 10
4.408669176970955
 20
8.146550885585668
 30
0.0
 10
4.401779021288636
 20
8.134975455038804
 30
0.0
 10
4.395980441399113
 20
8.122435791581461
 30
0.0
 10
4.391105884451147
 20
8.108984754692381
 30
0.0
 10
4.387403226401518
 20
8.094550862399501
 30
0.0
 10
4.384626797587675
 20
8.079196849824715
 30
0.0
 10
4.382904438942263
 20
8.062890989950915
 30
0.0
 10
4.382583546190677
 20
8.051697587572514
 30
0.0
 10
4.382418694483627
 20
8.045947219324365
 30
0.0
  0
SPLINE
  5
C5
330
1F
100
AcDbEntity
  8
0
  6
Continuous
 62
     7
370
    15
100
AcDbSpline
210
0.0
220
0.0
230
1.0
 70
     8
 71
     3
 72
    23
 73
    19
 74
     0
 42
0.000000001
 43
0.00000001
 40
0.0
 40
0.0
 40
0.0
 40
0.0
 40
0.0554099313494794
 40
0.1082104914508336
 40
0.1594353647582959
 40
0.2098956734314064
 40
0.2605503219512049
 40
0.3122532453443081
 40
0.3660138942670594
 40
0.422432826017371
 40
0.4817305614178091
 40
0.5437133091761115
 40
0.6091578449575388
 40
0.6782493065499324
 40
0.7516354765527541
 40
0.8296738690410822
 40
0.9122804636672357
 40
0.9999999999999999
 40
0.9999999999999999
 40
0.9999999999999999
 40
0.9999999999999999
 10
2.618926305564403
 20
8.194498519098168
 30
0.0
 10
2.615258970149155
 20
8.194348341216251
 30
0.0
 10
2.608097001925514
 20
8.194055057647558
 30
0.0
 10
2.597696113623056
 20
8.192105453231838
 30
0.0
 10
2.587894926343673
 20
8.189104676752281
 30
0.0
 10
2.578789215253384
 20
8.184698490426959
 30
0.0
 10
2.570294019519287
 20
8.179168415436873
 30
0.0
 10
2.56241594669655
 20
8.172443454652676
 30
0.0
 10
2.555176175222774
 20
8.164512320233515
 30
0.0
 10
2.548658672903612
 20
8.155359846304222
 30
0.0
 10
2.542789793886451
 20
8.145151873967952
 30
0.0
 10
2.537683736863004
 20
8.13388119932226
 30
0.0
 10
2.533387153846462
 20
8.121593644632341
 30
0.0
 10
2.529842347416444
 20
8.108287581395501
 30
0.0
 10
2.527116862731637
 20
8.093943912026027
 30
0.0
 10
2.525058921015991
 20
8.07858868862068
 30
0.0
 10
2.523865577833194
 20
8.062188061661876
 30
0.0
 10
2.523645383970629
 20
8.050919294849777
 30
0.0
 10
2.523531982090256
 20
8.04511577548235
 30
0.0
  0
SPLINE
  5
C6
330
1F
100
AcDbEntity
  8
0
  6
Continuous
 62
     7
370
    15
100
AcDbSpline
210
0.0
220
0.0
230
1.0
 70
     8
 71
     3
 72
    23
 73
    19
 74
     0
 42
0.000000001
 43
0.00000001
 40
0.0
 40
0.0
 40
0.0
 40
0.0
 40
0.0849479070380599
 40
0.1652510153757022
 40
0.2416372161085772
 40
0.3138506455352388
 40
0.3826935830076084
 40
0.4482101989123336
 40
0.5106269982062246
 40
0.5706742931411573
 40
0.6279782509160896
 40
0.6823499985632899
 40
0.7350099184136245
 40
0.7864686097719853
 40
0.8377027001267777
 40
0.8897014737002715
 40
0.943411977629286
 40
1.0
 40
1.0
 40
1.0
 40
1.0
 10
2.523531982090256
 20
8.04511577548235
 30
0.0
 10
2.523598522840429
 20
8.03960718312777
 30
0.0
 10
2.52372796601229
 20
8.028891198336325
 30
0.0
 10
2.524959677585671
 20
8.013264756600082
 30
0.0
 10
2.526706959774795
 20
7.998520737183602
 30
0.0
 10
2.529332407856816
 20
7.984657819359962
 30
0.0
 10
2.53263835571898
 20
7.971671545609905
 30
0.0
 10
2.536638607330297
 20
7.959540155295917
 30
0.0
 10
2.541518339024033
 20
7.948357666490187
 30
0.0
 10
2.546936673306408
 20
7.938022966651674
 30
0.0
 10
2.553124442704176
 20
7.928738302734389
 30
0.0
 10
2.560043238058443
 20
7.920601249068539
 30
0.0
 10
2.567671281994634
 20
7.913670910481477
 30
0.0
 10
2.576003170798306
 20
7.907955079505983
 30
0.0
 10
2.585016173578116
 20
7.903478064216765
 30
0.0
 10
2.594698636861997
 20
7.900261042113691
 30
0.0
 10
2.605061096521851
 20
7.898227706740361
 30
0.0
 10
2.612209983127706
 20
7.897861135009094
 30
0.0
 10
2.615877678143672
 20
7.897673067497903
 30
0.0
  0
SPLINE
  5
C7
330
1F
100
AcDbEntity
  8
0
  6
Continuous
 62
     7
370
    15
100
AcDbSpline
210
0.0
220
0.0
230
1.0
 70
     8
 71
     3
 72
    19
 73
    15
 74
     0
 42
0.000000001
 43
0.00000001
 40
0.0
 40
0.0
 40
0.0
 40
0.0
 40
0.1239689973149168
 40
0.2459310998726431
 40
0.3659951630048028
 40
0.4877413395698215
 40
0.5490714521434046
 40
0.6102421637011247
 40
0.6717339552351332
 40
0.7338149672911447
 40
0.7973503358775956
 40
0.8630144238753804
 40
0.9303040264477727
 40
0.9999999999999999
 40
0.9999999999999999
 40
0.9999999999999999
 40
0.9999999999999999
 10
4.296370806620285
 20
8.041972365628846
 30
0.0
 10
4.300047580942167
 20
8.043513133817084
 30
0.0
 10
4.307341607453222
 20
8.04656972718631
 30
0.0
 10
4.317347595709923
 20
8.052845454592177
 30
0.0
 10
4.326310337932268
 20
8.060383074604422
 30
0.0
 10
4.332931730871084
 20
8.067564309912107
 30
0.0
 10
4.337594840661013
 20
8.073883414085337
 30
0.0
 10
4.340645241552003
 20
8.078952975090402
 30
0.0
 10
4.343280748284861
 20
8.084280178939368
 30
0.0
 10
4.345351977935306
 20
8.089928151984642
 30
0.0
 10
4.347126441092255
 20
8.095818231502719
 30
0.0
 10
4.34827313496466
 20
8.102030560985185
 30
0.0
 10
4.349174522038787
 20
8.108483700322598
 30
0.0
 10
4.349312472347443
 20
8.112884363197834
 30
0.0
 10
4.349382659160796
 20
8.115123346980226
 30
0.0
  0
SPLINE
  5
C8
330
1F
100
AcDbEntity
  8
0
  6
Continuous
 62
     7
370
    15
100
AcDbSpline
210
0.0
220
0.0
230
1.0
 70
     8
 71
     3
 72
    23
 73
    19
 74
     0
 42
0.000000001
 43
0.00000001
 40
0.0
 40
0.0
 40
0.0
 40
0.0
 40
0.0567132356999893
 40
0.1119418244379248
 40
0.1666617488224753
 40
0.2210326256091508
 40
0.2757779143277919
 40
0.3318723138080197
 40
0.3886414728404181
 40
0.4468696282744126
 40
0.5065443739000195
 40
0.5671392508314177
 40
0.629790627616405
 40
0.6949556269892712
 40
0.7644648201649583
 40
0.8379678552548224
 40
0.9160855693214415
 40
1.0
 40
1.0
 40
1.0
 40
1.0
 10
5.364797308622097
 20
7.984642093372939
 30
0.0
 10
5.36477647654015
 20
7.982976812143265
 30
0.0
 10
5.364735357721391
 20
7.979689843647272
 30
0.0
 10
5.364072098755858
 20
7.974837774602509
 30
0.0
 10
5.36312923156925
 20
7.970101819195656
 30
0.0
 10
5.361570342086326
 20
7.965545625199451
 30
0.0
 10
5.359712119293911
 20
7.961062663908391
 30
0.0
 10
5.357300426402695
 20
7.956766760580359
 30
0.0
 10
5.35452410115744
 20
7.952580327140032
 30
0.0
 10
5.351313391222976
 20
7.948575501681543
 30
0.0
 10
5.347613422886768
 20
7.944853038052411
 30
0.0
 10
5.343365907396278
 20
7.941546648426353
 30
0.0
 10
5.338563368559835
 20
7.93877559979292
 30
0.0
 10
5.333223079565912
 20
7.936516724823091
 30
0.0
 10
5.327408563606408
 20
7.934619641315698
 30
0.0
 10
5.321056074075893
 20
7.933255307138174
 30
0.0
 10
5.314194441926083
 20
7.932370189361281
 30
0.0
 10
5.30944429089373
 20
7.932152270456135
 30
0.0
 10
5.306984246807144
 20
7.932039412967962
 30
0.0
  0
SPLINE
  5
C9
330
1F
100
AcDbEntity
  8
0
  6
Continuous
 62
     7
370
    15
100
AcDbSpline
210
0.0
220
0.0
230
1.0
 70
     8
 71
     3
 72
    15
 73
    11
 74
     0
 42
0.000000001
 43
0.00000001
 40
0.0
 40
0.0
 40
0.0
 40
0.0
 40
0.1462648081761575
 40
0.2881984386667986
 40
0.4249379165937449
 40
0.558256800512222
 40
0.6842366233547824
 40
0.799263680867735
 40
0.9046022681802326
 40
0.9999999999999999
 40
0.9999999999999999
 40
0.9999999999999999
 40
0.9999999999999999
 10
5.322670820626541
 20
8.194498519098168
 30
0.0
 10
5.318953304493362
 20
8.194387243174377
 30
0.0
 10
5.311628354912798
 20
8.194167986417419
 30
0.0
 10
5.300892107859124
 20
8.192899937680826
 30
0.0
 10
5.290569900919498
 20
8.19107645923304
 30
0.0
 10
5.280861675976856
 20
8.18837562815459
 30
0.0
 10
5.271843245589224
 20
8.18532809061229
 30
0.0
 10
5.263713525265831
 20
8.181940329277195
 30
0.0
 10
5.256519060147701
 20
8.178347635292992
 30
0.0
 10
5.252252149589311
 20
8.175543787319434
 30
0.0
 10
5.250224347192079
 20
8.17421128935294
 30
0.0
  0
SPLINE
  5
CA
330
1F
100
AcDbEntity
  8
0
  6
Continuous
 62
     7
370
    15
100
AcDbSpline
210
0.0
220
0.0
230
1.0
 70
     8
 71
     3
 72
    15
 73
    11
 74
     0
 42
0.000000001
 43
0.00000001
 40
0.0
 40
0.0
 40
0.0
 40
0.0
 40
0.0918241662143843
 40
0.1928961597635982
 40
0.304924088391914
 40
0.426828636844833
 40
0.557889400350881
 40
0.6969118070408495
 40
0.8442022690365361
 40
1.0
 40
1.0
 40
1.0
 40
1.0
 10
4.111076780119366
 20
8.185720940475369
 30
0.0
 10
4.109154647591308
 20
8.186626979052274
 30
0.0
 10
4.105116800056125
 20
8.188530305478075
 30
0.0
 10
4.09845740642699
 20
8.190888717347535
 30
0.0
 10
4.090986960647477
 20
8.192957948973753
 30
0.0
 10
4.082741828403144
 20
8.194795283713677
 30
0.0
 10
4.07377984701887
 20
8.196205443543057
 30
0.0
 10
4.064179428018813
 20
8.19724213292795
 30
0.0
 10
4.053971371429489
 20
8.197931208424333
 30
0.0
 10
4.04695998758476
 20
8.19800703523936
 30
0.0
 10
4.04335589570887
 20
8.19804601282411
 30
0.0
  0
SPLINE
  5
CB
330
1F
100
AcDbEntity
  8
0
  6
Continuous
 62
     7
370
    15
100
AcDbSpline
210
0.0
220
0.0
230
1.0
 70
     8
 71
     3
 72
    23
 73
    19
 74
     0
 42
0.000000001
 43
0.00000001
 40
0.0
 40
0.0
 40
0.0
 40
0.0
 40
0.0680879309567333
 40
0.1332062500241339
 40
0.1958500784646841
 40
0.2562774163182519
 40
0.3150588408691083
 40
0.3731237754110025
 40
0.4311396780261427
 40
0.4894544777601614
 40
0.54809048095711
 40
0.6067935108619051
 40
0.6664690722150356
 40
0.7275199860083241
 40
0.790904060031572
 40
0.8572012116165321
 40
0.9266644152539364
 40
1.0
 40
1.0
 40
1.0
 40
1.0
 10
4.04335589570887
 20
8.19804601282411
 30
0.0
 10
4.037825401839547
 20
8.197878347502852
 30
0.0
 10
4.027005623080488
 20
8.197550329476895
 30
0.0
 10
4.011199038420192
 20
8.195531667985072
 30
0.0
 10
3.996243858061359
 20
8.192278601031632
 30
0.0
 10
3.982146826152992
 20
8.187788553096059
 30
0.0
 10
3.968908036179952
 20
8.182060059299298
 30
0.0
 10
3.956528523062256
 20
8.175039000388702
 30
0.0
 10
3.945016449714235
 20
8.166739629982173
 30
0.0
 10
3.934397421776715
 20
8.15725293429929
 30
0.0
 10
3.924861057665206
 20
8.146600515629645
 30
0.0
 10
3.916485970609746
 20
8.134877746017466
 30
0.0
 10
3.90936947836582
 20
8.12212410602167
 30
0.0
 10
3.903538437885474
 20
8.108323783901415
 30
0.0
 10
3.89894497377993
 20
8.093503047212256
 30
0.0
 10
3.895587740629481
 20
8.077660238802839
 30
0.0
 10
3.893461923731977
 20
8.060783880193844
 30
0.0
 10
3.893067249009265
 20
8.049186900999198
 30
0.0
 10
3.892864560303694
 20
8.043231169440443
 30
0.0
  0
SPLINE
  5
CC
330
1F
100
AcDbEntity
  8
0
  6
Continuous
 62
     7
370
    15
100
AcDbSpline
210
0.0
220
0.0
230
1.0
 70
     8
 71
     3
 72
    23
 73
    19
 74
     0
 42
0.000000001
 43
0.00000001
 40
0.0
 40
0.0
 40
0.0
 40
0.0
 40
0.0798780161459282
 40
0.155381391426629
 40
0.2262585226365345
 40
0.2928913613310757
 40
0.3558556418273325
 40
0.4169160584478401
 40
0.4758063200412045
 40
0.534517986486128
 40
0.5916305973893837
 40
0.6482956980793034
 40
0.7050954220451413
 40
0.7608261852484686
 40
0.8186035627951123
 40
0.8766666423152257
 40
0.9369296721983481
 40
0.9999999999999999
 40
0.9999999999999999
 40
0.9999999999999999
 40
0.9999999999999999
 10
5.31269349452233
 20
8.16013217362811
 30
0.0
 10
5.314542588984463
 20
8.160063955711589
 30
0.0
 10
5.318139509442281
 20
8.159931255936348
 30
0.0
 10
5.323353335529877
 20
8.159338584216686
 30
0.0
 10
5.328190257761105
 20
8.158336661093934
 30
0.0
 10
5.332646835884868
 20
8.157014359372154
 30
0.0
 10
5.336747104063487
 20
8.155351086238685
 30
0.0
 10
5.34046277299819
 20
8.153296961599148
 30
0.0
 10
5.343844099495052
 20
8.150893315674994
 30
0.0
 10
5.346807172705255
 20
8.148122668878338
 30
0.0
 10
5.349433445972331
 20
8.145104545307873
 30
0.0
 10
5.351718967695478
 20
8.141873608216885
 30
0.0
 10
5.353647163953682
 20
8.138455106183944
 30
0.0
 10
5.355238656626743
 20
8.134837501431281
 30
0.0
 10
5.356422031124
 20
8.13103822542866
 30
0.0
 10
5.35734303502813
 20
8.127059676294232
 30
0.0
 10
5.357829216819624
 20
8.1228772572889
 30
0.0
 10
5.357891955938697
 20
8.120020746623094
 30
0.0
 10
5.357924039528086
 20
8.118559981527232
 30
0.0
  0
SPLINE
  5
CD
330
1F
100
AcDbEntity
  8
0
  6
Continuous
 62
     7
370
    15
100
AcDbSpline
210
0.0
220
0.0
230
1.0
 70
     8
 71
     3
 72
    23
 73
    19
 74
     0
 42
0.000000001
 43
0.00000001
 40
0.0
 40
0.0
 40
0.0
 40
0.0
 40
0.0724819100088416
 40
0.1422188887506131
 40
0.2091885078834705
 40
0.2737736934742709
 40
0.3369764124081948
 40
0.3990856911739029
 40
0.4604785867087672
 40
0.5221026565076311
 40
0.583120085510182
 40
0.6431718415129762
 40
0.7022397084105676
 40
0.761159062413975
 40
0.8198830761233767
 40
0.8790044135117665
 40
0.9390178895068428
 40
1.0
 40
1.0
 40
1.0
 40
1.0
 10
5.410415860754126
 20
7.983090064867839
 30
0.0
 10
5.410304252587122
 20
7.985587078716368
 30
0.0
 10
5.410085262918045
 20
7.990486543074983
 30
0.0
 10
5.409148097152734
 20
7.99764755309308
 30
0.0
 10
5.407648910259965
 20
8.004431807689707
 30
0.0
 10
5.405640657512366
 20
8.010845673252998
 30
0.0
 10
5.403168566759541
 20
8.016919640857509
 30
0.0
 10
5.400090206106494
 20
8.02258400348614
 30
0.0
 10
5.396544181294428
 20
8.027905281667465
 30
0.0
 10
5.392412374277538
 20
8.032733309882495
 30
0.0
 10
5.387998327382166
 20
8.037233053288459
 30
0.0
 10
5.383273792167643
 20
8.041274478040512
 30
0.0
 10
5.37832167572971
 20
8.04491099035382
 30
0.0
 10
5.373102644210128
 20
8.048069829604175
 30
0.0
 10
5.367639082556836
 20
8.050779111871359
 30
0.0
 10
5.361976713611177
 20
8.053147428096885
 30
0.0
 10
5.356029327408794
 20
8.054972777442691
 30
0.0
 10
5.351945173785764
 20
8.055826729011205
 30
0.0
 10
5.349886749055249
 20
8.056257122965384
 30
0.0
  0
SPLINE
  5
CE
330
1F
100
AcDbEntity
  8
0
  6
Continuous
 62
     7
370
    15
100
AcDbSpline
210
0.0
220
0.0
230
1.0
 70
     8
 71
     3
 72
    23
 73
    19
 74
     0
 42
0.000000001
 43
0.00000001
 40
0.0
 40
0.0
 40
0.0
 40
0.0
 40
0.0767191081022926
 40
0.1496903395758876
 40
0.2189083324392478
 40
0.2853908248720553
 40
0.3492106790230103
 40
0.4110490902851937
 40
0.4711272911633675
 40
0.5304161979824294
 40
0.5883364127995231
 40
0.6451911529511993
 40
0.7012370145816932
 40
0.7574375116328502
 40
0.8149116033668815
 40
0.8740589527054436
 40
0.9355257185509492
 40
1.0
 40
1.0
 40
1.0
 40
1.0
 10
4.382418694483627
 20
8.045947219324365
 30
0.0
 10
4.382537498909482
 20
8.040417614692306
 30
0.0
 10
4.382769303935494
 20
8.029628537295972
 30
0.0
 10
4.384518576610204
 20
8.01393605705472
 30
0.0
 10
4.386981422057926
 20
7.999089908321131
 30
0.0
 10
4.390621091060861
 20
7.985164053914956
 30
0.0
 10
4.395113617134572
 20
7.972047196799558
 30
0.0
 10
4.400770198608185
 20
7.959895972085434
 30
0.0
 10
4.407235104376808
 20
7.948527905697944
 30
0.0
 10
4.414789156865671
 20
7.938194072320714
 30
0.0
 10
4.423156648024189
 20
7.928821411611894
 30
0.0
 10
4.432381013546744
 20
7.920624587071281
 30
0.0
 10
4.442444395294764
 20
7.913699991131173
 30
0.0
 10
4.453300352402647
 20
7.908009177814416
 30
0.0
 10
4.464940921563157
 20
7.903509578967706
 30
0.0
 10
4.477374470865391
 20
7.900238349090043
 30
0.0
 10
4.490591472573334
 20
7.898236179626652
 30
0.0
 10
4.499663848188161
 20
7.897863736233009
 30
0.0
 10
4.504308361723401
 20
7.897673067497903
 30
0.0
  0
SPLINE
  5
CF
330
1F
100
AcDbEntity
  8
0
  6
Continuous
 62
     7
370
    15
100
AcDbSpline
210
0.0
220
0.0
230
1.0
 70
     8
 71
     3
 72
    23
 73
    19
 74
     0
 42
0.000000001
 43
0.00000001
 40
0.0
 40
0.0
 40
0.0
 40
0.0
 40
0.0659126199973856
 40
0.1279753118719034
 40
0.1873438051907471
 40
0.2440687307324709
 40
0.2982081365197671
 40
0.3513916642791848
 40
0.4031374221458352
 40
0.4552070353053052
 40
0.5091869726879261
 40
0.5661999208149713
 40
0.6267865589575536
 40
0.6913979127715812
 40
0.7612566295235978
 40
0.8357930685131717
 40
0.9152584258787061
 40
1.0
 40
1.0
 40
1.0
 40
1.0
 10
4.241497299352256
 20
8.02538278750134
 30
0.0
 10
4.243353213708289
 20
8.02535915973531
 30
0.0
 10
4.246956639251533
 20
8.025313284291023
 30
0.0
 10
4.252201884614883
 20
8.024719921702282
 30
0.0
 10
4.257148902065186
 20
8.023879708786026
 30
0.0
 10
4.261769055040491
 20
8.022561807079759
 30
0.0
 10
4.266021719468168
 20
8.020745126598419
 30
0.0
 10
4.269970911245566
 20
8.01861539955974
 30
0.0
 10
4.273551008633743
 20
8.016009138765934
 30
0.0
 10
4.27687963340914
 20
8.013054983618686
 30
0.0
 10
4.27987647562963
 20
8.00956401228105
 30
0.0
 10
4.282653135478442
 20
8.005606156143678
 30
0.0
 10
4.285201506209456
 20
8.001148053310883
 30
0.0
 10
4.28752450077553
 20
7.996169524674282
 30
0.0
 10
4.289679500303277
 20
7.990692568613301
 30
0.0
 10
4.291609202146728
 20
7.984691451873602
 30
0.0
 10
4.293319448113883
 20
7.978190764699493
 30
0.0
 10
4.294285808191594
 20
7.973671321677357
 30
0.0
 10
4.294784513534978
 20
7.971338991900658
 30
0.0
  0
SPLINE
  5
D0
330
1F
100
AcDbEntity
  8
0
  6
Continuous
 62
     7
370
    15
100
AcDbSpline
210
0.0
220
0.0
230
1.0
 70
     8
 71
     3
 72
    23
 73
    19
 74
     0
 42
0.000000001
 43
0.00000001
 40
0.0
 40
0.0
 40
0.0
 40
0.0
 40
0.0641664171608072
 40
0.1252310373226701
 40
0.1843479276249382
 40
0.2417640919251531
 40
0.2981006287989106
 40
0.3541838352613556
 40
0.4103472138545952
 40
0.4676480168941821
 40
0.5258480308876535
 40
0.5853211282389414
 40
0.6462929219002398
 40
0.7097408901407284
 40
0.7762917260632317
 40
0.8468696099183828
 40
0.9211771064982266
 40
1.0
 40
1.0
 40
1.0
 40
1.0
 10
4.037535788814747
 20
7.932039412967962
 30
0.0
 10
4.033891147449604
 20
7.932137636143676
 30
0.0
 10
4.026778046250852
 20
7.932329334398435
 30
0.0
 10
4.01638726859182
 20
7.933756468377348
 30
0.0
 10
4.006541654702946
 20
7.936004088116317
 30
0.0
 10
3.997233966431898
 20
7.939177678011791
 30
0.0
 10
3.98845671270852
 20
7.943225145773912
 30
0.0
 10
3.980296029253906
 20
7.948265633610995
 30
0.0
 10
3.972620950974302
 20
7.95410885635668
 30
0.0
 10
3.965600848633147
 20
7.960899354003024
 30
0.0
 10
3.959164618536144
 20
7.968497065971904
 30
0.0
 10
3.953639835223817
 20
7.977034454467424
 30
0.0
 10
3.948897841932738
 20
7.986357461258661
 30
0.0
 10
3.945020887420268
 20
7.996506233993937
 30
0.0
 10
3.941995901219037
 20
8.007501204977594
 30
0.0
 10
3.939725332040611
 20
8.019303172458645
 30
0.0
 10
3.938356899066094
 20
8.031948294260513
 30
0.0
 10
3.938074288520405
 20
8.04064117200185
 30
0.0
 10
3.937928816541045
 20
8.04511577548235
 30
0.0
  0
SPLINE
  5
D1
330
1F
100
AcDbEntity
  8
0
  6
Continuous
 62
     7
370
    15
100
AcDbSpline
210
0.0
220
0.0
230
1.0
 70
     8
 71
     3
 72
    23
 73
    19
 74
     0
 42
0.000000001
 43
0.00000001
 40
0.0
 40
0.0
 40
0.0
 40
0.0
 40
0.0653439446770963
 40
0.1293200623137591
 40
0.1922038478502179
 40
0.2530954457311481
 40
0.3136696668887117
 40
0.3741061278653044
 40
0.4344965989476928
 40
0.495299726810996
 40
0.5556758188672267
 40
0.6148726789167319
 40
0.6742774482438718
 40
0.733924347670986
 40
0.7960832158448451
 40
0.8602788155234036
 40
0.9279072738051198
 40
1.0
 40
1.0
 40
1.0
 40
1.0
 10
5.301230233202806
 20
8.0392401848683
 30
0.0
 10
5.303278896192197
 20
8.039193275977745
 30
0.0
 10
5.307333338065228
 20
8.039100440127696
 30
0.0
 10
5.313336211874024
 20
8.03849130260821
 30
0.0
 10
5.319132074102686
 20
8.03743628414306
 30
0.0
 10
5.324737426416552
 20
8.035999595433417
 30
0.0
 10
5.330117236512812
 20
8.034089413387196
 30
0.0
 10
5.335345073983995
 20
8.031836851405762
 30
0.0
 10
5.340353400964956
 20
8.029106573562116
 30
0.0
 10
5.345091006092299
 20
8.025945295701652
 30
0.0
 10
5.349574137829467
 20
8.022472808792074
 30
0.0
 10
5.353407805839171
 20
8.018346851785973
 30
0.0
 10
5.356743418165435
 20
8.013852869043603
 30
0.0
 10
5.359585923486528
 20
8.008911809144214
 30
0.0
 10
5.361701953927708
 20
8.003457719191267
 30
0.0
 10
5.363297304389331
 20
7.997583789580147
 30
0.0
 10
5.364457603587258
 20
7.991280609154011
 30
0.0
 10
5.364681687027717
 20
7.98690157056699
 30
0.0
 10
5.364797308622097
 20
7.984642093372939
 30
0.0
  0
SPLINE
  5
D2
330
1F
100
AcDbEntity
  8
0
  6
Continuous
 62
     7
370
    15
100
AcDbSpline
210
0.0
220
0.0
230
1.0
 70
     8
 71
     3
 72
    15
 73
    11
 74
     0
 42
0.000000001
 43
0.00000001
 40
0.0
 40
0.0
 40
0.0
 40
0.0
 40
0.1505940505792129
 40
0.2918325047803441
 40
0.4228609739065208
 40
0.5458140675146624
 40
0.6624451795425652
 40
0.7754359429034707
 40
0.8866317997947276
 40
1.0
 40
1.0
 40
1.0
 40
1.0
 10
4.337742445372551
 20
7.980928310878594
 30
0.0
 10
4.336864653289561
 20
7.984660031922212
 30
0.0
 10
4.335163601612753
 20
7.991891642301985
 30
0.0
 10
4.331645701401024
 20
8.002077302727571
 30
0.0
 10
4.327617185812985
 20
8.011303000188278
 30
0.0
 10
4.322974547912945
 20
8.019532556799696
 30
0.0
 10
4.317583789305087
 20
8.026745800931192
 30
0.0
 10
4.311315518723571
 20
8.032783297172474
 30
0.0
 10
4.304240282399165
 20
8.037749541869584
 30
0.0
 10
4.298988058135503
 20
8.040029345738187
 30
0.0
 10
4.296336542040077
 20
8.041180274630133
 30
0.0
  0
SPLINE
  5
D3
330
1F
100
AcDbEntity
  8
0
  6
Continuous
 62
     7
370
    15
100
AcDbSpline
210
0.0
220
0.0
230
1.0
 70
     8
 71
     3
 72
    13
 73
     9
 74
     0
 42
0.000000001
 43
0.00000001
 40
0.0
 40
0.0
 40
0.0
 40
0.0
 40
0.2717980594490419
 40
0.5356982292475436
 40
0.6622984551229094
 40
0.7813947303233097
 40
0.8939736611827932
 40
1.0
 40
1.0
 40
1.0
 40
1.0
 10
4.241849255593193
 20
8.194609378277104
 30
0.0
 10
4.235269993083543
 20
8.194496510762914
 30
0.0
 10
4.222302647829795
 20
8.194274055431137
 30
0.0
 10
4.206294072762882
 20
8.193229336474149
 30
0.0
 10
4.194027209336419
 20
8.191919373814207
 30
0.0
 10
4.18540650270732
 20
8.19096129098508
 30
0.0
 10
4.177313714394147
 20
8.18979199089608
 30
0.0
 10
4.172098510977848
 20
8.18889280867212
 30
0.0
 10
4.169569070927135
 20
8.188456693846174
 30
0.0
  0
SPLINE
  5
D4
330
1F
100
AcDbEntity
  8
0
  6
Continuous
 62
     7
370
    15
100
AcDbSpline
210
0.0
220
0.0
230
1.0
 70
     8
 71
     3
 72
    15
 73
    11
 74
     0
 42
0.000000001
 43
0.00000001
 40
0.0
 40
0.0
 40
0.0
 40
0.0
 40
0.1003246455462767
 40
0.2104126509245166
 40
0.3293589792871332
 40
0.4575417531445176
 40
0.5910457523034433
 40
0.7251906077110566
 40
0.8616830731439424
 40
1.0
 40
1.0
 40
1.0
 40
1.0
 10
5.261384153161451
 20
8.142531871580152
 30
0.0
 10
5.262896007852864
 20
8.143582222793306
 30
0.0
 10
5.266066847397827
 20
8.14578514294277
 30
0.0
 10
5.271351250484099
 20
8.148728650452744
 30
0.0
 10
5.277238151398059
 20
8.151606111413253
 30
0.0
 10
5.28365563401267
 20
8.154362687759463
 30
0.0
 10
5.290499843574566
 20
8.15680370931236
 30
0.0
 10
5.297687376301999
 20
8.15866348529756
 30
0.0
 10
5.305123193974966
 20
8.159758344038332
 30
0.0
 10
5.31015891694021
 20
8.160007013458861
 30
0.0
 10
5.31269349452233
 20
8.16013217362811
 30
0.0
  0
SPLINE
  5
D5
330
1F
100
AcDbEntity
  8
0
  6
Continuous
 62
     7
370
    15
100
AcDbSpline
210
0.0
220
0.0
230
1.0
 70
     8
 71
     3
 72
    23
 73
    19
 74
     0
 42
0.000000001
 43
0.00000001
 40
0.0
 40
0.0
 40
0.0
 40
0.0
 40
0.0544530646311246
 40
0.1066750664410048
 40
0.1573868279966695
 40
0.2071136520824081
 40
0.2569877922557096
 40
0.3078690660444804
 40
0.3607720471598062
 40
0.4163043940943263
 40
0.4746946655985179
 40
0.5365160585136878
 40
0.6020768000922013
 40
0.671837747027177
 40
0.746233086790788
 40
0.8255110060476456
 40
0.9099347174765893
 40
1.0
 40
1.0
 40
1.0
 40
1.0
 10
2.615897652282845
 20
7.897673067497903
 30
0.0
 10
2.619520450579598
 20
7.897784733115063
 30
0.0
 10
2.626617613092423
 20
7.8980034891614
 30
0.0
 10
2.636951809578489
 20
7.899881812263353
 30
0.0
 10
2.64666094099701
 20
7.902926055102681
 30
0.0
 10
2.655736533665209
 20
7.907185065391085
 30
0.0
 10
2.66417413181677
 20
7.912614800400535
 30
0.0
 10
2.671998742438475
 20
7.919226285007073
 30
0.0
 10
2.67918484413895
 20
7.927047602397775
 30
0.0
 10
2.685642358338091
 20
7.9360922427074
 30
0.0
 10
2.691501432714196
 20
7.946224489480503
 30
0.0
 10
2.696512200735012
 20
7.95753656668037
 30
0.0
 10
2.700773372007861
 20
7.969947529428248
 30
0.0
 10
2.704223997466682
 20
7.983469799766596
 30
0.0
 10
2.7069934630844
 20
7.99807471681034
 30
0.0
 10
2.708948155025874
 20
8.013792387237654
 30
0.0
 10
2.710183861600881
 20
8.030628998590386
 30
0.0
 10
2.710353167717984
 20
8.042231180763586
 30
0.0
 10
2.710440557775801
 20
8.048219832492547
 30
0.0
  0
SPLINE
  5
D6
330
1F
100
AcDbEntity
  8
0
  6
Continuous
 62
     7
370
    15
100
AcDbSpline
210
0.0
220
0.0
230
1.0
 70
     8
 71
     3
 72
    15
 73
    11
 74
     0
 42
0.000000001
 43
0.00000001
 40
0.0
 40
0.0
 40
0.0
 40
0.0
 40
0.0797517881433669
 40
0.1694705132017905
 40
0.2733317438370605
 40
0.3897001223648482
 40
0.520465182271653
 40
0.66554437332654
 40
0.8253901710758307
 40
1.0
 40
1.0
 40
1.0
 40
1.0
 10
4.077389555381205
 20
7.938231937416321
 30
0.0
 10
4.076418393193613
 20
7.937756915582457
 30
0.0
 10
4.074354698345322
 20
7.936747506316016
 30
0.0
 10
4.070850200986418
 20
7.935519415271493
 30
0.0
 10
4.066754975284089
 20
7.93456940299092
 30
0.0
 10
4.062069007176855
 20
7.933757754147149
 30
0.0
 10
4.056805378839078
 20
7.933009083883805
 30
0.0
 10
4.050916767955959
 20
7.932572194486341
 30
0.0
 10
4.044433420696411
 20
7.932137934595727
 30
0.0
 10
4.039901681667219
 20
7.932073205959375
 30
0.0
 10
4.037535788814747
 20
7.932039412967962
 30
0.0
  0
SPLINE
  5
D7
330
1F
100
AcDbEntity
  8
0
  6
Continuous
 62
     7
370
    15
100
AcDbSpline
210
0.0
220
0.0
230
1.0
 70
     8
 71
     3
 72
    23
 73
    19
 74
     0
 42
0.000000001
 43
0.00000001
 40
0.0
 40
0.0
 40
0.0
 40
0.0
 40
0.0782577436381611
 40
0.151891443895281
 40
0.2216454225481786
 40
0.2877962487556991
 40
0.3506374871744857
 40
0.4111694503037751
 40
0.4700374849320338
 40
0.5280964143252211
 40
0.585428558985284
 40
0.642067231281175
 40
0.6983331991635776
 40
0.7553879299822982
 40
0.8134638307086155
 40
0.8732553939735647
 40
0.9352829532439196
 40
1.0
 40
1.0
 40
1.0
 40
1.0
 10
3.937928816541045
 20
8.04511577548235
 30
0.0
 10
3.938085706304339
 20
8.049720759262543
 30
0.0
 10
3.938390215629184
 20
8.05865863049382
 30
0.0
 10
3.93990368366308
 20
8.071629719007632
 30
0.0
 10
3.94222329967339
 20
8.083759684111195
 30
0.0
 10
3.945593967822178
 20
8.094977445184151
 30
0.0
 10
3.949644681950791
 20
8.10538986866539
 30
0.0
 10
3.954721534086142
 20
8.114869431132911
 30
0.0
 10
3.96069340479158
 20
8.123465383834201
 30
0.0
 10
3.967475017377497
 20
8.131187727861901
 30
0.0
 10
3.974969441910207
 20
8.138028831388475
 30
0.0
 10
3.983108354769418
 20
8.143904372645766
 30
0.0
 10
3.991764096081895
 20
8.148952082517646
 30
0.0
 10
4.000998880790925
 20
8.153063633199135
 30
0.0
 10
4.01081850702892
 20
8.156218926524199
 30
0.0
 10
4.021175691053717
 20
8.158473172518539
 30
0.0
 10
4.032082040172145
 20
8.159907061715133
 30
0.0
 10
4.039545155410287
 20
8.160056082264719
 30
0.0
 10
4.04335589570887
 20
8.16013217362811
 30
0.0
  0
SPLINE
  5
D8
330
1F
100
AcDbEntity
  8
0
  6
Continuous
 62
     7
370
    15
100
AcDbSpline
210
0.0
220
0.0
230
1.0
 70
     8
 71
     3
 72
    23
 73
    19
 74
     0
 42
0.000000001
 43
0.00000001
 40
0.0
 40
0.0
 40
0.0
 40
0.0
 40
0.0739435196556206
 40
0.14458847015468
 40
0.212284416962351
 40
0.2773020654260531
 40
0.3404145866182262
 40
0.4016244381331848
 40
0.4618039734004503
 40
0.5212344820055738
 40
0.579667430353811
 40
0.6367274959823078
 40
0.6933957201903626
 40
0.7506553336553703
 40
0.8090440047211378
 40
0.8698227706960142
 40
0.9331597504763575
 40
0.9999999999999999
 40
0.9999999999999999
 40
0.9999999999999999
 40
0.9999999999999999
 10
4.629634663510179
 20
8.050603304839663
 30
0.0
 10
4.629542768321353
 20
8.055909591884625
 30
0.0
 10
4.629363077324376
 20
8.066285456187618
 30
0.0
 10
4.627846379003865
 20
8.081459941975512
 30
0.0
 10
4.625344338011004
 20
8.095844937851933
 30
0.0
 10
4.621990643988814
 20
8.109502854710412
 30
0.0
 10
4.617632638134558
 20
8.122390805292998
 30
0.0
 10
4.612210536155737
 20
8.1344872317568
 30
0.0
 10
4.605887791829963
 20
8.14583544966243
 30
0.0
 10
4.5986476909265
 20
8.156382859462747
 30
0.0
 10
4.590487703315231
 20
8.165960803812311
 30
0.0
 10
4.581295189547561
 20
8.174254532183525
 30
0.0
 10
4.571326196662519
 20
8.181458589681988
 30
0.0
 10
4.560370081210106
 20
8.187262089492943
 30
0.0
 10
4.548566447602039
 20
8.191906267520608
 30
0.0
 10
4.535882100765007
 20
8.195261226012361
 30
0.0
 10
4.522316419902495
 20
8.19738050054504
 30
0.0
 10
4.512981500973693
 20
8.19782023079168
 30
0.0
 10
4.508188432986149
 20
8.19804601282411
 30
0.0
  0
SPLINE
  5
D9
330
1F
100
AcDbEntity
  8
0
  6
Continuous
 62
     7
370
    15
100
AcDbSpline
210
0.0
220
0.0
230
1.0
 70
     8
 71
     3
 72
    23
 73
    19
 74
     0
 42
0.000000001
 43
0.00000001
 40
0.0
 40
0.0
 40
0.0
 40
0.0
 40
0.0406549244071347
 40
0.0818948925336248
 40
0.1234711776333278
 40
0.1668398098302787
 40
0.2115471069307812
 40
0.2590450378441598
 40
0.3086838255029103
 40
0.3616067602591781
 40
0.4177644276628417
 40
0.4785580913689703
 40
0.5455054240565327
 40
0.6196377624833866
 40
0.701363638887972
 40
0.7919208939192591
 40
0.8912224513464617
 40
1.0
 40
1.0
 40
1.0
 40
1.0
 10
2.061249205928498
 20
8.124657236368694
 30
0.0
 10
2.061337518959124
 20
8.126635328222012
 30
0.0
 10
2.061515415886936
 20
8.130619977612248
 30
0.0
 10
2.060840995415346
 20
8.136607301444018
 30
0.0
 10
2.05958343048655
 20
8.142625479918701
 30
0.0
 10
2.057489587390733
 20
8.148589646724103
 30
0.0
 10
2.05475005035015
 20
8.154596988441726
 30
0.0
 10
2.051243032690244
 20
8.160552317749998
 30
0.0
 10
2.047019149913348
 20
8.166509424688439
 30
0.0
 10
2.042205587573748
 20
8.172554225252252
 30
0.0
 10
2.0362448571094
 20
8.178333505976687
 30
0.0
 10
2.028720860276033
 20
8.183258132940624
 30
0.0
 10
2.019803450871638
 20
8.18741090462269
 30
0.0
 10
2.009569946267876
 20
8.191035436547569
 30
0.0
 10
1.997883443305058
 20
8.193767950913763
 30
0.0
 10
1.98485553562815
 20
8.195982338601736
 30
0.0
 10
1.97039333529896
 20
8.197465645790638
 30
0.0
 10
1.960278445519372
 20
8.197846771614316
 30
0.0
 10
1.954990682918655
 20
8.19804601282411
 30
0.0
  0
SPLINE
  5
DA
330
1F
100
AcDbEntity
  8
0
  6
Continuous
 62
     7
370
    15
100
AcDbSpline
210
0.0
220
0.0
230
1.0
 70
     8
 71
     3
 72
    13
 73
     9
 74
     0
 42
0.000000001
 43
0.00000001
 40
0.0
 40
0.0
 40
0.0
 40
0.0
 40
0.2812166143996981
 40
0.5496409911235438
 40
0.6763540518716769
 40
0.7930830537827569
 40
0.901455613970696
 40
0.9999999999999999
 40
0.9999999999999999
 40
0.9999999999999999
 40
0.9999999999999999
 10
1.954990682918655
 20
8.19804601282411
 30
0.0
 10
1.948392104114211
 20
8.197967080511694
 30
0.0
 10
1.935495108672376
 20
8.197812806431834
 30
0.0
 10
1.919659526265098
 20
8.196651595215494
 30
0.0
 10
1.907716219240966
 20
8.195390936553451
 30
0.0
 10
1.89953011348248
 20
8.194330384622013
 30
0.0
 10
1.892019232928273
 20
8.193202935769635
 30
0.0
 10
1.887253023192863
 20
8.192278271170077
 30
0.0
 10
1.884983111420777
 20
8.191837898803712
 30
0.0
  0
SPLINE
  5
DB
330
1F
100
AcDbEntity
  8
0
  6
Continuous
 62
     7
370
    15
100
AcDbSpline
210
0.0
220
0.0
230
1.0
 70
     8
 71
     3
 72
    31
 73
    27
 74
     0
 42
0.000000001
 43
0.00000001
 40
0.0
 40
0.0
 40
0.0
 40
0.0
 40
0.0432456398390063
 40
0.0879996625632029
 40
0.134813774589488
 40
0.1837749652752347
 40
0.2351550463171698
 40
0.2894132034983071
 40
0.3464272934623126
 40
0.4066686776423149
 40
0.4373903334927073
 40
0.4680701842007884
 40
0.4988974926833706
 40
0.5298033422065769
 40
0.561514489048777
 40
0.5942488381342671
 40
0.6276720983414399
 40
0.6624929092289977
 40
0.698557796618841
 40
0.7363284898385317
 40
0.7756311946743155
 40
0.8166448174381142
 40
0.8594569625648959
 40
0.9043458865337087
 40
0.9511630446680784
 40
1.0
 40
1.0
 40
1.0
 40
1.0
 10
3.892864560303694
 20
8.043231169440443
 30
0.0
 10
3.89270589133383
 20
8.03988670453109
 30
0.0
 10
3.892383019112275
 20
8.03308112171227
 30
0.0
 10
3.893149851835234
 20
8.022659154690084
 30
0.0
 10
3.894684386832739
 20
8.0118895736744
 30
0.0
 10
3.897215113301881
 20
8.000776981973615
 30
0.0
 10
3.900685432539333
 20
7.989323399849748
 30
0.0
 10
3.905083282444187
 20
7.977525120219747
 30
0.0
 10
3.910406161826467
 20
7.965367995794693
 30
0.0
 10
3.915395228843496
 20
7.95505528330151
 30
0.0
 10
3.92009994217302
 20
7.946896889807014
 30
0.0
 10
3.924205763517526
 20
7.94104657435032
 30
0.0
 10
3.92888706275721
 20
7.935631071425721
 30
0.0
 10
3.93402207722709
 20
7.930532040908889
 30
0.0
 10
3.939705205619906
 20
7.925814569689296
 30
0.0
 10
3.945904307443835
 20
7.921455288098458
 30
0.0
 10
3.952612142060114
 20
7.91743909054056
 30
0.0
 10
3.959814733605385
 20
7.91378500599553
 30
0.0
 10
3.967566819064447
 20
7.910520797175002
 30
0.0
 10
3.975816371982527
 20
7.90758147188588
 30
0.0
 10
3.984599859218461
 20
7.905052976432414
 30
0.0
 10
3.993867639417558
 20
7.902841955274853
 30
0.0
 10
4.003646633156384
 20
7.900945160031223
 30
0.0
 10
4.013951310429612
 20
7.899468161510974
 30
0.0
 10
4.024770764437235
 20
7.898362135676778
 30
0.0
 10
4.03215715253799
 20
7.897905967649811
 30
0.0
 10
4.03592833072018
 20
7.897673067497903
 30
0.0
  0
SPLINE
  5
DC
330
1F
100
AcDbEntity
  8
0
  6
Continuous
 62
     7
370
    15
100
AcDbSpline
210
0.0
220
0.0
230
1.0
 70
     8
 71
     3
 72
    23
 73
    19
 74
     0
 42
0.000000001
 43
0.00000001
 40
0.0
 40
0.0
 40
0.0
 40
0.0
 40
0.0749395293124878
 40
0.145922800561658
 40
0.214574051925341
 40
0.2805834905884019
 40
0.3442660723690649
 40
0.4067861378429403
 40
0.468733612723316
 40
0.5301371586391642
 40
0.5911656208791365
 40
0.6507101870068339
 40
0.7093845220496101
 40
0.7672399862723086
 40
0.8249483699341322
 40
0.8828450527669028
 40
0.9412621714476325
 40
1.0
 40
1.0
 40
1.0
 40
1.0
 10
2.068344193380381
 20
7.985030100499213
 30
0.0
 10
2.068228375793328
 20
7.987563429010827
 30
0.0
 10
2.06800285493922
 20
7.992496344850418
 30
0.0
 10
2.067136083004814
 20
7.999715826853608
 30
0.0
 10
2.065662656193991
 20
8.00652133879894
 30
0.0
 10
2.063839095292675
 20
8.012991423785454
 30
0.0
 10
2.061330477856446
 20
8.019002428883207
 30
0.0
 10
2.058487857055373
 20
8.02470873231247
 30
0.0
 10
2.055014763842358
 20
8.029968057161831
 30
0.0
 10
2.051128792817494
 20
8.034856959488204
 30
0.0
 10
2.046875535566931
 20
8.039321494792002
 30
0.0
 10
2.042345035725556
 20
8.043357955594773
 30
0.0
 10
2.037714181467903
 20
8.047114410834205
 30
0.0
 10
2.03279872969471
 20
8.050383053252562
 30
0.0
 10
2.027688523868999
 20
8.05327984699791
 30
0.0
 10
2.022349151896608
 20
8.05577398768319
 30
0.0
 10
2.016811239398124
 20
8.057895945813064
 30
0.0
 10
2.012997511446708
 20
8.058982636167617
 30
0.0
 10
2.011085427460106
 20
8.059527468743987
 30
0.0
  0
SPLINE
  5
DD
330
1F
100
AcDbEntity
  8
0
  6
Continuous
 62
     7
370
    15
100
AcDbSpline
210
0.0
220
0.0
230
1.0
 70
     8
 71
     3
 72
    23
 73
    19
 74
     0
 42
0.000000001
 43
0.00000001
 40
0.0
 40
0.0
 40
0.0
 40
0.0
 40
0.0901599319555689
 40
0.173954075422506
 40
0.2520808601445578
 40
0.3248734074893346
 40
0.3927434292453734
 40
0.4561985252083944
 40
0.5152175803921613
 40
0.5715596840364506
 40
0.6253597608913488
 40
0.6777814786180568
 40
0.7292601462498871
 40
0.780433807688957
 40
0.8327049188971457
 40
0.8860002145185669
 40
0.9415755041263834
 40
1.0
 40
1.0
 40
1.0
 40
1.0
 10
4.840100706458638
 20
8.015562926900802
 30
0.0
 10
4.840000389719934
 20
8.012054112394557
 30
0.0
 10
4.839806839157594
 20
8.005284225039672
 30
0.0
 10
4.839057320265695
 20
7.995493778854734
 30
0.0
 10
4.837798273499293
 20
7.986436895034539
 30
0.0
 10
4.836041771136811
 20
7.978094491920538
 30
0.0
 10
4.833784874448352
 20
7.970464951707335
 30
0.0
 10
4.831026322757666
 20
7.963574518721792
 30
0.0
 10
4.827793252955381
 20
7.957395402460139
 30
0.0
 10
4.824086574534515
 20
7.951929972169587
 30
0.0
 10
4.819872995662915
 20
7.94718981044374
 30
0.0
 10
4.815327613990569
 20
7.943039988620371
 30
0.0
 10
4.810344883624253
 20
7.939605158067124
 30
0.0
 10
4.805034604385031
 20
7.936715527417312
 30
0.0
 10
4.799300864514975
 20
7.934570842627928
 30
0.0
 10
4.793196331301141
 20
7.933083021695074
 30
0.0
 10
4.786731130563427
 20
7.932175525290783
 30
0.0
 10
4.78229079589851
 20
7.932085533466655
 30
0.0
 10
4.780015139736419
 20
7.932039412967962
 30
0.0
  0
SPLINE
  5
DE
330
1F
100
AcDbEntity
  8
0
  6
Continuous
 62
     7
370
    15
100
AcDbSpline
210
0.0
220
0.0
230
1.0
 70
     8
 71
     3
 72
    23
 73
    19
 74
     0
 42
0.000000001
 43
0.00000001
 40
0.0
 40
0.0
 40
0.0
 40
0.0
 40
0.086871693491645
 40
0.167863330629169
 40
0.2427610616541982
 40
0.3125949548647808
 40
0.3778801810044899
 40
0.4389691556789903
 40
0.4966545959443338
 40
0.5518759896933773
 40
0.6058643775188611
 40
0.6590830772150401
 40
0.7122715405270874
 40
0.7663999672048334
 40
0.8215630671166073
 40
0.8783932488508888
 40
0.9378422518754302
 40
1.0
 40
1.0
 40
1.0
 40
1.0
 10
4.676916049195786
 20
8.018244874595894
 30
0.0
 10
4.677030538523213
 20
8.013026678187908
 30
0.0
 10
4.677251767775815
 20
8.002943487752505
 30
0.0
 10
4.67871042818031
 20
7.988420721990121
 30
0.0
 10
4.680949271646493
 20
7.975038250477749
 30
0.0
 10
4.684033044777594
 20
7.962790681084901
 30
0.0
 10
4.687938272017041
 20
7.951651201999543
 30
0.0
 10
4.69270381424804
 20
7.941650222081221
 30
0.0
 10
4.698309414975316
 20
7.932794219445551
 30
0.0
 10
4.704820369660947
 20
7.925129914722773
 30
0.0
 10
4.71203215686342
 20
7.918533310949956
 30
0.0
 10
4.719761279967021
 20
7.91274726867811
 30
0.0
 10
4.728168428134856
 20
7.907981662962655
 30
0.0
 10
4.737104359115427
 20
7.904019348617134
 30
0.0
 10
4.746644491486196
 20
7.901016577277196
 30
0.0
 10
4.756757356826125
 20
7.899014585182431
 30
0.0
 10
4.767417550316273
 20
7.897730746784364
 30
0.0
 10
4.774726985940713
 20
7.897692577330183
 30
0.0
 10
4.778463111231321
 20
7.897673067497903
 30
0.0
  0
SPLINE
  5
DF
330
1F
100
AcDbEntity
  8
0
  6
Continuous
 62
     7
370
    15
100
AcDbSpline
210
0.0
220
0.0
230
1.0
 70
     8
 71
     3
 72
    15
 73
    11
 74
     0
 42
0.000000001
 43
0.00000001
 40
0.0
 40
0.0
 40
0.0
 40
0.0
 40
0.1485930871115897
 40
0.2926096741898078
 40
0.4319512864986755
 40
0.5684079473816247
 40
0.6969728521835761
 40
0.811316826574888
 40
0.9122830961901787
 40
0.9999999999999999
 40
0.9999999999999999
 40
0.9999999999999999
 40
0.9999999999999999
 10
5.306984246807144
 20
7.932039412967962
 30
0.0
 10
5.304006062489717
 20
7.932160299223703
 30
0.0
 10
5.298141418583739
 20
7.932398348574411
 30
0.0
 10
5.28954348405798
 20
7.933529457477053
 30
0.0
 10
5.28129074756663
 20
7.935231994304629
 30
0.0
 10
5.273519142971191
 20
7.937569709902323
 30
0.0
 10
5.26637077742725
 20
7.940183510332535
 30
0.0
 10
5.260041884712044
 20
7.942918461286948
 30
0.0
 10
5.254554573508085
 20
7.945553307994899
 30
0.0
 10
5.251371533051624
 20
7.947604057754819
 30
0.0
 10
5.249891769655271
 20
7.948557430629377
 30
0.0
  0
SPLINE
  5
E0
330
1F
100
AcDbEntity
  8
0
  6
Continuous
 62
     7
370
    15
100
AcDbSpline
210
0.0
220
0.0
230
1.0
 70
     8
 71
     3
 72
    23
 73
    19
 74
     0
 42
0.000000001
 43
0.00000001
 40
0.0
 40
0.0
 40
0.0
 40
0.0
 40
0.0728290213279911
 40
0.1437726319486704
 40
0.211803998495433
 40
0.2774564169860884
 40
0.3417166179391171
 40
0.4042419704693296
 40
0.4658051608908663
 40
0.5267884289066429
 40
0.5868084953945631
 40
0.6458105157086178
 40
0.7039357766085402
 40
0.7620549238864738
 40
0.820192410101685
 40
0.8791130711396105
 40
0.9391508959196946
 40
0.9999999999999999
 40
0.9999999999999999
 40
0.9999999999999999
 40
0.9999999999999999
 10
5.349895409928602
 20
8.057069458755562
 30
0.0
 10
5.352009505197436
 20
8.057862352581566
 30
0.0
 10
5.356182965659322
 20
8.05942761365664
 30
0.0
 10
5.362147688496428
 20
8.062188975745679
 30
0.0
 10
5.367697946388836
 20
8.065263623373262
 30
0.0
 10
5.372910292986214
 20
8.068513471042946
 30
0.0
 10
5.377647479519144
 20
8.072146173630172
 30
0.0
 10
5.382091937777163
 20
8.07594411446458
 30
0.0
 10
5.38599657747747
 20
8.080157501190365
 30
0.0
 10
5.389627579916342
 20
8.084502761515614
 30
0.0
 10
5.392783601573801
 20
8.089114790497998
 30
0.0
 10
5.395493688746404
 20
8.093896045828439
 30
0.0
 10
5.397837252768724
 20
8.098800133701706
 30
0.0
 10
5.399812740639828
 20
8.103840483028204
 30
0.0
 10
5.401226983406654
 20
8.109091856375612
 30
0.0
 10
5.402279261283129
 20
8.114481357210623
 30
0.0
 10
5.402975871101048
 20
8.120020124237705
 30
0.0
 10
5.403057876881388
 20
8.123768302649943
 30
0.0
 10
5.403099154944372
 20
8.125654968979115
 30
0.0
  0
SPLINE
  5
E1
330
1F
100
AcDbEntity
  8
0
  6
Continuous
 62
     7
370
    15
100
AcDbSpline
210
0.0
220
0.0
230
1.0
 70
     8
 71
     3
 72
    23
 73
    19
 74
     0
 42
0.000000001
 43
0.00000001
 40
0.0
 40
0.0
 40
0.0
 40
0.0
 40
0.0603074642327805
 40
0.1183809323392021
 40
0.1744948398708977
 40
0.2293229077344722
 40
0.2833329207632964
 40
0.3377444585896763
 40
0.3927745814007794
 40
0.449235327859262
 40
0.5070923960698818
 40
0.566811235815563
 40
0.6291462196669
 40
0.6945668107614075
 40
0.7640344268582073
 40
0.8378246806454257
 40
0.9163623734147519
 40
1.0
 40
1.0
 40
1.0
 40
1.0
 10
4.504308361723401
 20
7.897673067497903
 30
0.0
 10
4.508804599825976
 20
7.897765601319065
 30
0.0
 10
4.517630519890324
 20
7.897947241190042
 30
0.0
 10
4.530530272289067
 20
7.899786510248417
 30
0.0
 10
4.542809107276645
 20
7.902677882942042
 30
0.0
 10
4.554382443564701
 20
7.906888758635135
 30
0.0
 10
4.565372013567414
 20
7.912158231269607
 30
0.0
 10
4.575649185682754
 20
7.918750333172559
 30
0.0
 10
4.585281129199181
 20
7.92652808504759
 30
0.0
 10
4.59431009960144
 20
7.935379497800858
 30
0.0
 10
4.60242330256927
 20
7.945534046179469
 30
0.0
 10
4.60957858473459
 20
7.9569085459101
 30
0.0
 10
4.615507886100161
 20
7.96958713610579
 30
0.0
 10
4.620530802019923
 20
7.983417349053554
 30
0.0
 10
4.62442420084483
 20
7.998493955046444
 30
0.0
 10
4.627269068231072
 20
8.014786157439802
 30
0.0
 10
4.629116018410011
 20
8.032289430816217
 30
0.0
 10
4.629458194996479
 20
8.04437202621011
 30
0.0
 10
4.629634663510179
 20
8.050603304839663
 30
0.0
  0
SPLINE
  5
E2
330
1F
100
AcDbEntity
  8
0
  6
Continuous
 62
     7
370
    15
100
AcDbSpline
210
0.0
220
0.0
230
1.0
 70
     8
 71
     3
 72
    15
 73
    11
 74
     0
 42
0.000000001
 43
0.00000001
 40
0.0
 40
0.0
 40
0.0
 40
0.0
 40
0.1368901302578825
 40
0.2678994843750014
 40
0.3939427106245463
 40
0.5167326596319193
 40
0.6366814820163373
 40
0.75611328821595
 40
0.8770991653810399
 40
0.9999999999999999
 40
0.9999999999999999
 40
0.9999999999999999
 40
0.9999999999999999
 10
4.349382659160796
 20
8.115123346980226
 30
0.0
 10
4.349314617395026
 20
8.117991984104481
 30
0.0
 10
4.349181456925887
 20
8.123606022202038
 30
0.0
 10
4.347950028430526
 20
8.131780714211308
 30
0.0
 10
4.346171756333192
 20
8.139545151365935
 30
0.0
 10
4.34354954752594
 20
8.146830176989518
 30
0.0
 10
4.340198375190996
 20
8.153650907444307
 30
0.0
 10
4.336125804089462
 20
8.160022984076305
 30
0.0
 10
4.331289688757356
 20
8.165926441788718
 30
0.0
 10
4.327582415519845
 20
8.169444999236866
 30
0.0
 10
4.32571422445803
 20
8.171218091521677
 30
0.0
  0
SPLINE
  5
E3
330
1F
100
AcDbEntity
  8
0
  6
Continuous
 62
     7
370
    15
100
AcDbSpline
210
0.0
220
0.0
230
1.0
 70
     8
 71
     3
 72
    19
 73
    15
 74
     0
 42
0.000000001
 43
0.00000001
 40
0.0
 40
0.0
 40
0.0
 40
0.0
 40
0.0710313298755782
 40
0.1384129425504781
 40
0.2029710409781341
 40
0.2653624456888166
 40
0.3264635751152462
 40
0.3876265901782195
 40
0.4499251876676362
 40
0.513838901502256
 40
0.6407805994520388
 40
0.7618209438976477
 40
0.8809319618453767
 40
1.0
 40
1.0
 40
1.0
 40
1.0
 10
5.357924039528086
 20
8.118559981527232
 30
0.0
 10
5.357782398359122
 20
8.116596277712619
 30
0.0
 10
5.357506393798642
 20
8.112769768709418
 30
0.0
 10
5.356381291321328
 20
8.107245235973837
 30
0.0
 10
5.354714012682277
 20
8.102116988847673
 30
0.0
 10
5.352544088272905
 20
8.097369748985562
 30
0.0
 10
5.349870359222045
 20
8.092993513465519
 30
0.0
 10
5.346621558538317
 20
8.089026803061024
 30
0.0
 10
5.342824981555187
 20
8.085467521438813
 30
0.0
 10
5.33715271249091
 20
8.081327009202749
 30
0.0
 10
5.329563013262236
 20
8.077129400035274
 30
0.0
 10
5.320081950684138
 20
8.073403279134883
 30
0.0
 10
5.310348787412753
 20
8.07106949760514
 30
0.0
 10
5.303744902076973
 20
8.07080236061796
 30
0.0
 10
5.300443555249938
 20
8.070668816227021
 30
0.0
  0
SPLINE
  5
E4
330
1F
100
AcDbEntity
  8
0
  6
Continuous
 62
     7
370
    15
100
AcDbSpline
210
0.0
220
0.0
230
1.0
 70
     8
 71
     3
 72
    15
 73
    11
 74
     0
 42
0.000000001
 43
0.00000001
 40
0.0
 40
0.0
 40
0.0
 40
0.0
 40
0.1562450520331337
 40
0.3049670460674651
 40
0.4470796525245674
 40
0.5816087045718201
 40
0.7065935150552929
 40
0.8175237341929372
 40
0.9155120987036173
 40
0.9999999999999999
 40
0.9999999999999999
 40
0.9999999999999999
 40
0.9999999999999999
 10
4.03592833072018
 20
7.897673067497903
 30
0.0
 10
4.040327650607162
 20
7.897758609410436
 30
0.0
 10
4.048914467105867
 20
7.897925574469749
 30
0.0
 10
4.061470751085748
 20
7.898904112725901
 30
0.0
 10
4.073368387321985
 20
7.900309412008469
 30
0.0
 10
4.084516913975894
 20
7.902241889478097
 30
0.0
 10
4.094693371436597
 20
7.904538361638695
 30
0.0
 10
4.103826879605703
 20
7.90676819436417
 30
0.0
 10
4.111759332842342
 20
7.909102122661647
 30
0.0
 10
4.116568763799795
 20
7.910913501172089
 30
0.0
 10
4.118795566974596
 20
7.911752183222733
 30
0.0
  0
SPLINE
  5
E5
330
1F
100
AcDbEntity
  8
0
  6
Continuous
 62
     7
370
    15
100
AcDbSpline
210
0.0
220
0.0
230
1.0
 70
     8
 71
     3
 72
    15
 73
    11
 74
     0
 42
0.000000001
 43
0.00000001
 40
0.0
 40
0.0
 40
0.0
 40
0.0
 40
0.1634322387136113
 40
0.314237386221932
 40
0.452646000991386
 40
0.5784540404156098
 40
0.694412667516614
 40
0.8033468373407797
 40
0.9052670934620628
 40
0.9999999999999999
 40
0.9999999999999999
 40
0.9999999999999999
 40
0.9999999999999999
 10
4.04335589570887
 20
8.16013217362811
 30
0.0
 10
4.046609459529095
 20
8.160096937014757
 30
0.0
 10
4.052865210529149
 20
8.160029186237027
 30
0.0
 10
4.061849289845685
 20
8.15931381813741
 30
0.0
 10
4.070064238521036
 20
8.158399685958512
 30
0.0
 10
4.077489922460133
 20
8.156910208719626
 30
0.0
 10
4.084256913084998
 20
8.155186819822436
 30
0.0
 10
4.09046096538157
 20
8.153229794054187
 30
0.0
 10
4.096195791481429
 20
8.1511840462846
 30
0.0
 10
4.099739169014473
 20
8.149516822801498
 30
0.0
 10
4.101446105471164
 20
8.148713678197735
 30
0.0
  0
SPLINE
  5
E6
330
1F
100
AcDbEntity
  8
0
  6
Continuous
 62
     7
370
    15
100
AcDbSpline
210
0.0
220
0.0
230
1.0
 70
     8
 71
     3
 72
    15
 73
    11
 74
     0
 42
0.000000001
 43
0.00000001
 40
0.0
 40
0.0
 40
0.0
 40
0.0
 40
0.1522007318510593
 40
0.2967968004797072
 40
0.4330825283026759
 40
0.5618749493359596
 40
0.6831667005286545
 40
0.7963228533980222
 40
0.9021935270971817
 40
1.0
 40
1.0
 40
1.0
 40
1.0
 10
5.015092028669516
 20
8.194775667045507
 30
0.0
 10
5.011415029799191
 20
8.194709641561488
 30
0.0
 10
5.004244752187469
 20
8.194580889536653
 30
0.0
 10
4.993784784817514
 20
8.194261832641796
 30
0.0
 10
4.983897214539609
 20
8.193771030837944
 30
0.0
 10
4.974585988593746
 20
8.193090071398855
 30
0.0
 10
4.965840283937824
 20
8.19234307473335
 30
0.0
 10
4.957670495075885
 20
8.191399118232553
 30
0.0
 10
4.950092073357353
 20
8.190304180522698
 30
0.0
 10
4.945248570209261
 20
8.189430523078586
 30
0.0
 10
4.942922703182393
 20
8.189010989740853
 30
0.0
  0
LINE
  5
E7
330
1F
100
AcDbEntity
  8
0
  6
Continuous
 62
     7
370
    15
100
AcDbLine
 10
4.9879869594
 20
8.0513238895
 30
0.0
 11
4.9879869594
 21
8.157290108
 31
0.0
  0
SPLINE
  5
E8
330
1F
100
AcDbEntity
  8
0
  6
Continuous
 62
     7
370
    15
100
AcDbSpline
210
0.0
220
0.0
230
1.0
 70
     8
 71
     3
 72
    11
 73
     7
 74
     0
 42
0.000000001
 43
0.00000001
 40
0.0
 40
0.0
 40
0.0
 40
0.0
 40
0.1770450776852145
 40
0.4008457801588222
 40
0.6756322445558021
 40
1.0
 40
1.0
 40
1.0
 40
1.0
 10
4.987986959419743
 20
8.15729010803688
 30
0.0
 10
4.989720094354393
 20
8.157632273359006
 30
0.0
 10
4.993644065775026
 20
8.158406966037754
 30
0.0
 10
5.000352824253208
 20
8.159116240264558
 30
0.0
 10
5.008543571332621
 20
8.159659584662185
 30
0.0
 10
5.014518153282296
 20
8.159822342222343
 30
0.0
 10
5.01775264896397
 20
8.159910455270238
 30
0.0
  0
SPLINE
  5
E9
330
1F
100
AcDbEntity
  8
0
  6
Continuous
 62
     7
370
    15
100
AcDbSpline
210
0.0
220
0.0
230
1.0
 70
     8
 71
     3
 72
    11
 73
     7
 74
     0
 42
0.000000001
 43
0.00000001
 40
0.0
 40
0.0
 40
0.0
 40
0.0
 40
0.2903795882753468
 40
0.5546154921733446
 40
0.7891395720596488
 40
1.0
 40
1.0
 40
1.0
 40
1.0
 10
5.012819415501333
 20
8.049106705924032
 30
0.0
 10
5.010398194178789
 20
8.049074707076558
 30
0.0
 10
5.005773740843624
 20
8.049013590327109
 30
0.0
 10
4.999206190129959
 20
8.04942490498053
 30
0.0
 10
4.993316157092726
 20
8.050070136865624
 30
0.0
 10
4.989699303150961
 20
8.05092104171957
 30
0.0
 10
4.987986959419743
 20
8.051323889502747
 30
0.0
  0
SPLINE
  5
EA
330
1F
100
AcDbEntity
  8
0
  6
Continuous
 62
     7
370
    15
100
AcDbSpline
210
0.0
220
0.0
230
1.0
 70
     8
 71
     3
 72
    23
 73
    19
 74
     0
 42
0.000000001
 43
0.00000001
 40
0.0
 40
0.0
 40
0.0
 40
0.0
 40
0.0691549699772816
 40
0.1342823086788685
 40
0.1959883627728921
 40
0.2558342076705113
 40
0.3133723020153229
 40
0.3696244665185016
 40
0.4259298643109223
 40
0.4827148928164585
 40
0.5403406142355986
 40
0.5986166335104645
 40
0.6583965732222503
 40
0.7205761017748458
 40
0.7851466304758681
 40
0.8530057721086584
 40
0.924697549322482
 40
1.0
 40
1.0
 40
1.0
 40
1.0
 10
5.077727464768171
 20
8.106975197328454
 30
0.0
 10
5.077653579421185
 20
8.104700271074796
 30
0.0
 10
5.077510111858782
 20
8.100282911779928
 30
0.0
 10
5.076690312495065
 20
8.093873853210413
 30
0.0
 10
5.075281133266675
 20
8.087886339483752
 30
0.0
 10
5.073418203307982
 20
8.082286961914646
 30
0.0
 10
5.071036656058902
 20
8.077078865359933
 30
0.0
 10
5.06806411326837
 20
8.072318121044553
 30
0.0
 10
5.064543404306518
 20
8.06798518859595
 30
0.0
 10
5.06054603447888
 20
8.064020038685376
 30
0.0
 10
5.056031607242223
 20
8.060551735413206
 30
0.0
 10
5.051135108652846
 20
8.057460255400516
 30
0.0
 10
5.045762310286371
 20
8.054919649429644
 30
0.0
 10
5.039986578618175
 20
8.052826302998481
 30
0.0
 10
5.033799461764802
 20
8.05114127144064
 30
0.0
 10
5.027171469152773
 20
8.050013882891767
 30
0.0
 10
5.0201339297359
 20
8.049279013544005
 30
0.0
 10
5.015297189127663
 20
8.049165074704609
 30
0.0
 10
5.012819415501333
 20
8.049106705924032
 30
0.0
  0
SPLINE
  5
EB
330
1F
100
AcDbEntity
  8
0
  6
Continuous
 62
     7
370
    15
100
AcDbSpline
210
0.0
220
0.0
230
1.0
 70
     8
 71
     3
 72
    23
 73
    19
 74
     0
 42
0.000000001
 43
0.00000001
 40
0.0
 40
0.0
 40
0.0
 40
0.0
 40
0.0727679077737759
 40
0.1421542793075287
 40
0.208570271865794
 40
0.2723088370451683
 40
0.3339744336077968
 40
0.3933063529972808
 40
0.4522118162205655
 40
0.5099064349216011
 40
0.5670088978360411
 40
0.6238195429751587
 40
0.6812871315466801
 40
0.7392304559850734
 40
0.7995395221266955
 40
0.8629844137701576
 40
0.9296221725539267
 40
1.0
 40
1.0
 40
1.0
 40
1.0
 10
5.01775264896397
 20
8.159910455270238
 30
0.0
 10
5.019952573602462
 20
8.159864372567677
 30
0.0
 10
5.024250192031838
 20
8.15977434863307
 30
0.0
 10
5.030535250647235
 20
8.15917489084313
 30
0.0
 10
5.036478164925338
 20
8.158109781106177
 30
0.0
 10
5.042108345886325
 20
8.156691726604956
 30
0.0
 10
5.047373657810796
 20
8.154803004613436
 30
0.0
 10
5.05231407312852
 20
8.152511060004466
 30
0.0
 10
5.056906113487706
 20
8.149807811092634
 30
0.0
 10
5.061137726054683
 20
8.146684722976506
 30
0.0
 10
5.06500129958747
 20
8.143204414807077
 30
0.0
 10
5.068353002838683
 20
8.139230532086826
 30
0.0
 10
5.071165312927003
 20
8.134834825645648
 30
0.0
 10
5.073533478730749
 20
8.130066634435707
 30
0.0
 10
5.075357351493327
 20
8.124870709654738
 30
0.0
 10
5.076667721755359
 20
8.11925772980545
 30
0.0
 10
5.077514211315608
 20
8.113245142655982
 30
0.0
 10
5.077655098368385
 20
8.10910286918908
 30
0.0
 10
5.077727464768171
 20
8.106975197328454
 30
0.0
  0
LINE
  5
EC
330
1F
100
AcDbEntity
  8
0
  6
Continuous
 62
     7
370
    15
100
AcDbLine
 10
4.5066364045
 20
8.1636796674
 30
0.0
 11
4.5066590851
 21
8.1637349887
 31
0.0
  0
SPLINE
  5
ED
330
1F
100
AcDbEntity
  8
0
  6
Continuous
 62
     7
370
    15
100
AcDbSpline
210
0.0
220
0.0
230
1.0
 70
     8
 71
     3
 72
    23
 73
    19
 74
     0
 42
0.000000001
 43
0.00000001
 40
0.0
 40
0.0
 40
0.0
 40
0.0
 40
0.0623931062580302
 40
0.1220625829919305
 40
0.1797233498295921
 40
0.2356899652675435
 40
0.2918663971665094
 40
0.349099574554701
 40
0.4081209539679771
 40
0.4698657391679094
 40
0.533386712728292
 40
0.5971707100143068
 40
0.661652195424373
 40
0.7265523604905425
 40
0.7926995055500669
 40
0.8602277258847485
 40
0.9291440501099726
 40
1.0
 40
1.0
 40
1.0
 40
1.0
 10
4.506659085143146
 20
8.163734988682602
 30
0.0
 10
4.509858453934293
 20
8.163479654928233
 30
0.0
 10
4.516117530329307
 20
8.162980133435353
 30
0.0
 10
4.525155981863988
 20
8.160939388551947
 30
0.0
 10
4.533576078435841
 20
8.15797405119474
 30
0.0
 10
4.541343578675755
 20
8.153928958258584
 30
0.0
 10
4.54842742379874
 20
8.148825642838549
 30
0.0
 10
4.554900380687245
 20
8.142739181597907
 30
0.0
 10
4.560701773565292
 20
8.135632084186001
 30
0.0
 10
4.565721178909335
 20
8.127580560343548
 30
0.0
 10
4.570157558110163
 20
8.11892864358
 30
0.0
 10
4.574031690129347
 20
8.109860294245584
 30
0.0
 10
4.577387565116762
 20
8.100509087936954
 30
0.0
 10
4.580014279321777
 20
8.0908036303541
 30
0.0
 10
4.582167860902633
 20
8.08082127818628
 30
0.0
 10
4.583546527802209
 20
8.070495643891258
 30
0.0
 10
4.584490380503402
 20
8.059877690234176
 30
0.0
 10
4.584580268947439
 20
8.052693313598956
 30
0.0
 10
4.584625836862295
 20
8.049051276334565
 30
0.0
  0
SPLINE
  5
EE
330
1F
100
AcDbEntity
  8
0
  6
Continuous
 62
     7
370
    15
100
AcDbSpline
210
0.0
220
0.0
230
1.0
 70
     8
 71
     3
 72
    23
 73
    19
 74
     0
 42
0.000000001
 43
0.00000001
 40
0.0
 40
0.0
 40
0.0
 40
0.0
 40
0.0713198001128596
 40
0.1403859511763833
 40
0.2080808373761081
 40
0.2744033498085193
 40
0.3391409238546599
 40
0.4033295204750283
 40
0.4667378310034074
 40
0.5300428858144989
 40
0.5914464706125242
 40
0.6501611648273264
 40
0.7071068263315827
 40
0.762833749217657
 40
0.8191954500149528
 40
0.8769202503125294
 40
0.936880244059087
 40
1.0
 40
1.0
 40
1.0
 40
1.0
 10
4.427482950720979
 20
8.04711124070319
 30
0.0
 10
4.42750467238757
 20
8.05084572124001
 30
0.0
 10
4.427547429333335
 20
8.058196675694196
 30
0.0
 10
4.428509882988653
 20
8.069054027107985
 30
0.0
 10
4.429887751997082
 20
8.079599448179748
 30
0.0
 10
4.432024718624152
 20
8.089790475155585
 30
0.0
 10
4.434689894119967
 20
8.099660426208908
 30
0.0
 10
4.43792039213985
 20
8.109207417693613
 30
0.0
 10
4.441933843222013
 20
8.118365424783514
 30
0.0
 10
4.446300722060522
 20
8.127199428716613
 30
0.0
 10
4.45141732499437
 20
8.135346546017626
 30
0.0
 10
4.457247350180826
 20
8.14258600445324
 30
0.0
 10
4.463837844916384
 20
8.148714940111697
 30
0.0
 10
4.471079873682127
 20
8.15384525610354
 30
0.0
 10
4.47902207665801
 20
8.157901612742062
 30
0.0
 10
4.487625720033673
 20
8.160960327276289
 30
0.0
 10
4.496904415353085
 20
8.16299384196676
 30
0.0
 10
4.503337358242963
 20
8.163447179459318
 30
0.0
 10
4.506636404481049
 20
8.163679667354051
 30
0.0
  0
SPLINE
  5
EF
330
1F
100
AcDbEntity
  8
0
  6
Continuous
 62
     7
370
    15
100
AcDbSpline
210
0.0
220
0.0
230
1.0
 70
     8
 71
     3
 72
    23
 73
    19
 74
     0
 42
0.000000001
 43
0.00000001
 40
0.0
 40
0.0
 40
0.0
 40
0.0
 40
0.0604381289616274
 40
0.1183180066693672
 40
0.1744976758647353
 40
0.2295950591215701
 40
0.2846353810216278
 40
0.3406698932074594
 40
0.3990923446017267
 40
0.4602781423520334
 40
0.5234158064409962
 40
0.5870512306170271
 40
0.6515196513351249
 40
0.7173893381531509
 40
0.7851744189545479
 40
0.8543084024026758
 40
0.9258359008661129
 40
1.0
 40
1.0
 40
1.0
 40
1.0
 10
4.505860390228499
 20
7.932039412967962
 30
0.0
 10
4.502746606042757
 20
7.932258412234094
 30
0.0
 10
4.496650839274568
 20
7.932687140870735
 30
0.0
 10
4.487825625183023
 20
7.934618744015635
 30
0.0
 10
4.479562552850934
 20
7.93748946745727
 30
0.0
 10
4.471890176856828
 20
7.941399143260098
 30
0.0
 10
4.464859733011692
 20
7.946347294255519
 30
0.0
 10
4.458353500545656
 20
7.952223591399287
 30
0.0
 10
4.45246796997358
 20
7.959147912830747
 30
0.0
 10
4.447259219280748
 20
7.967027930802963
 30
0.0
 10
4.442668075595272
 20
7.97558038540561
 30
0.0
 10
4.438612734837151
 20
7.984582243571795
 30
0.0
 10
4.435142290893563
 20
7.993980425921654
 30
0.0
 10
4.432412531270464
 20
8.003838944200151
 30
0.0
 10
4.430168966594152
 20
8.014064965855432
 30
0.0
 10
4.428645255209831
 20
8.024718106596863
 30
0.0
 10
4.42767604160877
 20
8.03576710382444
 30
0.0
 10
4.427548086225571
 20
8.043284513879312
 30
0.0
 10
4.427482950720979
 20
8.04711124070319
 30
0.0
  0
SPLINE
  5
F0
330
1F
100
AcDbEntity
  8
0
  6
Continuous
 62
     7
370
    15
100
AcDbSpline
210
0.0
220
0.0
230
1.0
 70
     8
 71
     3
 72
    23
 73
    19
 74
     0
 42
0.000000001
 43
0.00000001
 40
0.0
 40
0.0
 40
0.0
 40
0.0
 40
0.0761777479395587
 40
0.1493709446981121
 40
0.2198681227167484
 40
0.2882470146081045
 40
0.3545411789928349
 40
0.4188782980718175
 40
0.4821636725004241
 40
0.5443155686270573
 40
0.6045460728922138
 40
0.6617888610153727
 40
0.7171857052372085
 40
0.7717472739313046
 40
0.8262985912945956
 40
0.881818691658298
 40
0.9394843805463969
 40
1.0
 40
1.0
 40
1.0
 40
1.0
 10
4.584625836862295
 20
8.049051276334565
 30
0.0
 10
4.584553700765514
 20
8.045059004821733
 30
0.0
 10
4.58441225477617
 20
8.03723087412094
 30
0.0
 10
4.583546600996462
 20
8.025730944411194
 30
0.0
 10
4.581974477539735
 20
8.014722126252813
 30
0.0
 10
4.579854854543157
 20
8.004170850793944
 30
0.0
 10
4.576992289714516
 20
7.994132632335698
 30
0.0
 10
4.573635567913428
 20
7.98453120115086
 30
0.0
 10
4.569573090514621
 20
7.975439760423796
 30
0.0
 10
4.56495481032101
 20
7.966866756858803
 30
0.0
 10
4.559775624019327
 20
7.958977703880969
 30
0.0
 10
4.553821395062256
 20
7.952122623050973
 30
0.0
 10
4.547389270861371
 20
7.946129931223556
 30
0.0
 10
4.540198465543682
 20
7.941323154756073
 30
0.0
 10
4.532506618385638
 20
7.937355077553386
 30
0.0
 10
4.524140590852603
 20
7.9345775153933
 30
0.0
 10
4.51522183827719
 20
7.93260955758369
 30
0.0
 10
4.509030639625838
 20
7.932232492138514
 30
0.0
 10
4.5058603902285
 20
7.932039412967962
 30
0.0
  0
LINE
  5
F1
330
1F
100
AcDbEntity
  8
0
  6
Continuous
 62
     7
370
    15
100
AcDbLine
 10
4.2445653055
 20
8.0596937575
 30
0.0
 11
4.2146333272
 21
8.059749133
 31
0.0
  0
LINE
  5
F2
330
1F
100
AcDbEntity
  8
0
  6
Continuous
 62
     7
370
    15
100
AcDbLine
 10
4.2146333272
 20
8.059749133
 30
0.0
 11
4.2146333272
 21
8.157524114
 31
0.0
  0
SPLINE
  5
F3
330
1F
100
AcDbEntity
  8
0
  6
Continuous
 62
     7
370
    15
100
AcDbSpline
210
0.0
220
0.0
230
1.0
 70
     8
 71
     3
 72
    23
 73
    19
 74
     0
 42
0.000000001
 43
0.00000001
 40
0.0
 40
0.0
 40
0.0
 40
0.0
 40
0.0691481535812626
 40
0.1353081453576948
 40
0.1993547200948464
 40
0.2612059611982774
 40
0.3215959430502947
 40
0.3808425812848161
 40
0.4389925993211513
 40
0.4965445505693439
 40
0.5535098131660092
 40
0.6104856683674548
 40
0.6677046122602901
 40
0.7267301484469448
 40
0.7889413416160338
 40
0.8544781484673039
 40
0.9249831529755614
 40
1.0
 40
1.0
 40
1.0
 40
1.0
 10
4.245673897266474
 20
8.160076744038642
 30
0.0
 10
4.247688868640054
 20
8.160065618900214
 30
0.0
 10
4.251631736603803
 20
8.16004384938404
 30
0.0
 10
4.25742349072293
 20
8.159574656200554
 30
0.0
 10
4.262977593820525
 20
8.158852782814733
 30
0.0
 10
4.268263509526085
 20
8.15759171839909
 30
0.0
 10
4.273321582312136
 20
8.156045097811619
 30
0.0
 10
4.278158779076744
 20
8.154177753289034
 30
0.0
 10
4.282725794549077
 20
8.151896194905694
 30
0.0
 10
4.286993715267291
 20
8.14922691854197
 30
0.0
 10
4.290999741256574
 20
8.146215688898865
 30
0.0
 10
4.294426743994816
 20
8.14256492571102
 30
0.0
 10
4.297402646912587
 20
8.138476906768291
 30
0.0
 10
4.299880723665181
 20
8.133883022265747
 30
0.0
 10
4.301702572481782
 20
8.12874321728755
 30
0.0
 10
4.303192847745096
 20
8.123154806083575
 30
0.0
 10
4.304030796065357
 20
8.117049300071987
 30
0.0
 10
4.304257147718461
 20
8.1128158852491
 30
0.0
 10
4.304373832512914
 20
8.11063355023333
 30
0.0
  0
SPLINE
  5
F4
330
1F
100
AcDbEntity
  8
0
  6
Continuous
 62
     7
370
    15
100
AcDbSpline
210
0.0
220
0.0
230
1.0
 70
     8
 71
     3
 72
    23
 73
    19
 74
     0
 42
0.000000001
 43
0.00000001
 40
0.0
 40
0.0
 40
0.0
 40
0.0
 40
0.0640636760534399
 40
0.1248915399204474
 40
0.1837419590582379
 40
0.2412750426968822
 40
0.2981967491317516
 40
0.3543676234370953
 40
0.4113652485199225
 40
0.4694593121164858
 40
0.5289045810658619
 40
0.5894506604961385
 40
0.650860622447805
 40
0.7143386668481926
 40
0.7806576463694493
 40
0.8502565195406614
 40
0.9234428313337623
 40
1.0
 40
1.0
 40
1.0
 40
1.0
 10
4.304373832512914
 20
8.11063355023333
 30
0.0
 10
4.304296249852608
 20
8.108746350986527
 30
0.0
 10
4.304145003178775
 20
8.105067273628036
 30
0.0
 10
4.30336430398595
 20
8.099698068725093
 30
0.0
 10
4.302091687124144
 20
8.094624056202845
 30
0.0
 10
4.300312111513928
 20
8.089825309607344
 30
0.0
 10
4.298033661701067
 20
8.085331286431023
 30
0.0
 10
4.295289577469959
 20
8.08112533397649
 30
0.0
 10
4.292066083530377
 20
8.077226159934877
 30
0.0
 10
4.288325335552469
 20
8.073680591981798
 30
0.0
 10
4.284167142580409
 20
8.070465047616729
 30
0.0
 10
4.279618531961829
 20
8.067639488103161
 30
0.0
 10
4.274701137858504
 20
8.065232941957957
 30
0.0
 10
4.269396510269654
 20
8.063307396752794
 30
0.0
 10
4.263722528597832
 20
8.061758841912587
 30
0.0
 10
4.257665746711647
 20
8.060594962906727
 30
0.0
 10
4.251234111691968
 20
8.059869091954697
 30
0.0
 10
4.246821352572719
 20
8.059753072890071
 30
0.0
 10
4.244565305477117
 20
8.05969375751239
 30
0.0
  0
SPLINE
  5
F5
330
1F
100
AcDbEntity
  8
0
  6
Continuous
 62
     7
370
    15
100
AcDbSpline
210
0.0
220
0.0
230
1.0
 70
     8
 71
     3
 72
    15
 73
    11
 74
     0
 42
0.000000001
 43
0.00000001
 40
0.0
 40
0.0
 40
0.0
 40
0.0
 40
0.0763099471206655
 40
0.1647958158568223
 40
0.2687862609631826
 40
0.3866678514580255
 40
0.5184006302369166
 40
0.6642158909684195
 40
0.8259308874899424
 40
1.0
 40
1.0
 40
1.0
 40
1.0
 10
4.214633327164486
 20
8.157524114008822
 30
0.0
 10
4.215408468426227
 20
8.157695408537252
 30
0.0
 10
4.217082431539202
 20
8.158065329139083
 30
0.0
 10
4.219832630397962
 20
8.158576271423696
 30
0.0
 10
4.223034363125624
 20
8.158997758492083
 30
0.0
 10
4.226691510627829
 20
8.159400051564608
 30
0.0
 10
4.23079851743516
 20
8.159650091573837
 30
0.0
 10
4.235362362805508
 20
8.159872491053324
 30
0.0
 10
4.240369812315921
 20
8.160050740762236
 30
0.0
 10
4.243863028332021
 20
8.160067866253714
 30
0.0
 10
4.245673897266475
 20
8.160076744038642
 30
0.0
  0
SPLINE
  5
F6
330
1F
100
AcDbEntity
  8
0
  6
Continuous
 62
     7
370
    15
100
AcDbSpline
210
0.0
220
0.0
230
1.0
 70
     8
 71
     3
 72
    23
 73
    19
 74
     0
 42
0.000000001
 43
0.00000001
 40
0.0
 40
0.0
 40
0.0
 40
0.0
 40
0.0990685123151589
 40
0.192079954738803
 40
0.2795111212612332
 40
0.3611634021430039
 40
0.4375734688426375
 40
0.5090402008301368
 40
0.5756110073067057
 40
0.6374562134786815
 40
0.6946708131875378
 40
0.7467719360817809
 40
0.7946606695272366
 40
0.8390211614783404
 40
0.8804719416352771
 40
0.9203414430883834
 40
0.9597965541335289
 40
0.9999999999999999
 40
0.9999999999999999
 40
0.9999999999999999
 40
0.9999999999999999
 10
2.568596238327607
 20
8.046667803987448
 30
0.0
 10
2.568650773365877
 20
8.051103519273184
 30
0.0
 10
2.568756509158592
 20
8.059703749269653
 30
0.0
 10
2.569531485398387
 20
8.07219651754733
 30
0.0
 10
2.570515182164644
 20
8.083892469330282
 30
0.0
 10
2.572035303103083
 20
8.09478163858179
 30
0.0
 10
2.573869964244401
 20
8.104898705563487
 30
0.0
 10
2.57622967091397
 20
8.114209777608414
 30
0.0
 10
2.578822584909814
 20
8.122782627791334
 30
0.0
 10
2.581946642251338
 20
8.130494698054836
 30
0.0
 10
2.585341249809011
 20
8.137374146312174
 30
0.0
 10
2.589062922966072
 20
8.14336311832606
 30
0.0
 10
2.593058941043518
 20
8.148459726514563
 30
0.0
 10
2.597329092017823
 20
8.152683693834422
 30
0.0
 10
2.60193754196014
 20
8.155961350530445
 30
0.0
 10
2.606824487210242
 20
8.158319412204422
 30
0.0
 10
2.611999940852914
 20
8.159845695237141
 30
0.0
 10
2.615571647120424
 20
8.16003608464064
 30
0.0
 10
2.617374277059303
 20
8.16013217362811
 30
0.0
  0
SPLINE
  5
F7
330
1F
100
AcDbEntity
  8
0
  6
Continuous
 62
     7
370
    15
100
AcDbSpline
210
0.0
220
0.0
230
1.0
 70
     8
 71
     3
 72
    23
 73
    19
 74
     0
 42
0.000000001
 43
0.00000001
 40
0.0
 40
0.0
 40
0.0
 40
0.0
 40
0.0449912092381171
 40
0.0884299356473952
 40
0.1310534276446319
 40
0.1743541017553891
 40
0.2199466974903824
 40
0.2686531120920901
 40
0.3212727377117671
 40
0.3786501240594188
 40
0.4407290160613931
 40
0.5066795180870524
 40
0.5768380840595964
 40
0.6517132667240397
 40
0.7314872949543687
 40
0.8159322054894106
 40
0.9055361522795703
 40
0.9999999999999999
 40
0.9999999999999999
 40
0.9999999999999999
 40
0.9999999999999999
 10
2.617374277059303
 20
8.16013217362811
 30
0.0
 10
2.619399106476442
 20
8.16000089098429
 30
0.0
 10
2.623378895819443
 20
8.159742855782719
 30
0.0
 10
2.62908995252704
 20
8.158124499847663
 30
0.0
 10
2.634399532029654
 20
8.15567731175994
 30
0.0
 10
2.639228773493367
 20
8.15220284045896
 30
0.0
 10
2.643646169864247
 20
8.147829983597456
 30
0.0
 10
2.647562796536045
 20
8.142480254882068
 30
0.0
 10
2.651137485456625
 20
8.13628281847528
 30
0.0
 10
2.654185251592151
 20
8.129150955342
 30
0.0
 10
2.656872106674958
 20
8.121247989319661
 30
0.0
 10
2.659173238970278
 20
8.112628207161405
 30
0.0
 10
2.661180247998975
 20
8.103346739190702
 30
0.0
 10
2.662771699139444
 20
8.093353382439098
 30
0.0
 10
2.66395797199366
 20
8.082659571957775
 30
0.0
 10
2.664856460725769
 20
8.071273215780188
 30
0.0
 10
2.665337553231748
 20
8.059199129342176
 30
0.0
 10
2.665399790748106
 20
8.050917795839586
 30
0.0
 10
2.665431731127918
 20
8.046667803987448
 30
0.0
  0
SPLINE
  5
F8
330
1F
100
AcDbEntity
  8
0
  6
Continuous
 62
     7
370
    15
100
AcDbSpline
210
0.0
220
0.0
230
1.0
 70
     8
 71
     3
 72
    23
 73
    19
 74
     0
 42
0.000000001
 43
0.00000001
 40
0.0
 40
0.0
 40
0.0
 40
0.0
 40
0.0841470475013884
 40
0.1650911226053997
 40
0.24294143718867
 40
0.3181784933195755
 40
0.3909617830701598
 40
0.4609582014040847
 40
0.5282979280632814
 40
0.5936324150318184
 40
0.6550089432529553
 40
0.7111857971738644
 40
0.7629395181833384
 40
0.811538275687599
 40
0.8582860899189645
 40
0.9041038350158805
 40
0.9507879793738603
 40
0.9999810642480376
 40
0.9999810642480376
 40
0.9999810642480376
 40
0.9999810642480376
 10
2.665431731127918
 20
8.046667803987448
 30
0.0
 10
2.665436100829741
 20
8.042842956761662
 30
0.0
 10
2.6654446739051
 20
8.035338851257679
 30
0.0
 10
2.665069064800312
 20
8.024299605214633
 30
0.0
 10
2.664276229176489
 20
8.013689991488272
 30
0.0
 10
2.663196700923734
 20
8.00347782466279
 30
0.0
 10
2.661691307412943
 20
7.993680102988823
 30
0.0
 10
2.659872473100777
 20
7.984301833122712
 30
0.0
 10
2.657711566863461
 20
7.975343511934289
 30
0.0
 10
2.655222273240467
 20
7.966877567436996
 30
0.0
 10
2.65230558375431
 20
7.959080197695087
 30
0.0
 10
2.648815839969683
 20
7.952201306604791
 30
0.0
 10
2.644821078949437
 20
7.946287656653851
 30
0.0
 10
2.640238288851947
 20
7.941371506646373
 30
0.0
 10
2.63506742180312
 20
7.937524484451497
 30
0.0
 10
2.62944825523725
 20
7.934547506797
 30
0.0
 10
2.623226432784151
 20
7.932701006799499
 30
0.0
 10
2.618884206155786
 20
7.932263874987937
 30
0.0
 10
2.616656265180864
 20
7.932039671873508
 30
0.0
  0
SPLINE
  5
F9
330
1F
100
AcDbEntity
  8
0
  6
Continuous
 62
     7
370
    15
100
AcDbSpline
210
0.0
220
0.0
230
1.0
 70
     8
 71
     3
 72
    23
 73
    19
 74
     0
 42
0.000000001
 43
0.00000001
 40
0.0000317397870447
 40
0.0000317397870447
 40
0.0000317397870447
 40
0.0000317397870447
 40
0.041602185702246
 40
0.0820355641861022
 40
0.1225020915818454
 40
0.1644312068099102
 40
0.2087241321653291
 40
0.2566257718360909
 40
0.3089346312552317
 40
0.3658943295834067
 40
0.4279465764736733
 40
0.4941392243038955
 40
0.565454911321763
 40
0.6415120549520634
 40
0.7232170027333445
 40
0.8099143221236417
 40
0.9021395130629082
 40
0.9999999999999999
 40
0.9999999999999999
 40
0.9999999999999999
 40
0.9999999999999999
 10
2.61665626518087
 20
7.93203967187346
 30
0.0
 10
2.614778211619837
 20
7.932152703770015
 30
0.0
 10
2.611073524380327
 20
7.932375998820456
 30
0.0
 10
2.605733328057565
 20
7.933956733240417
 30
0.0
 10
2.600710083017753
 20
7.936356579051065
 30
0.0
 10
2.596079516492704
 20
7.93976109809854
 30
0.0
 10
2.591767155512567
 20
7.944036246567824
 30
0.0
 10
2.587829617525145
 20
7.949260093438292
 30
0.0
 10
2.584249227865397
 20
7.955397521590743
 30
0.0
 10
2.580989078312435
 20
7.962419358094508
 30
0.0
 10
2.578094967091802
 20
7.970267769738851
 30
0.0
 10
2.57551702009698
 20
7.978905524497943
 30
0.0
 10
2.573482204444748
 20
7.988332765473579
 30
0.0
 10
2.57168140940661
 20
7.998515712975069
 30
0.0
 10
2.570328707840472
 20
8.009469842125315
 30
0.0
 10
2.56934072967919
 20
8.021192473272063
 30
0.0
 10
2.56872634140545
 20
8.033672304656482
 30
0.0
 10
2.568640454754515
 20
8.042251194051548
 30
0.0
 10
2.568596238327607
 20
8.046667803987448
 30
0.0
  0
LINE
  5
FA
330
1F
100
AcDbEntity
  8
0
  6
Continuous
 62
     7
370
    15
100
AcDbLine
 10
1.9300473677
 20
7.9335360119
 30
0.0
 11
1.9300473677
 21
8.0395727624
 31
0.0
  0
LINE
  5
FB
330
1F
100
AcDbEntity
  8
0
  6
Continuous
 62
     7
370
    15
100
AcDbLine
 10
1.9300473677
 20
8.0395727624
 30
0.0
 11
1.9561924874
 21
8.0395727624
 31
0.0
  0
SPLINE
  5
FC
330
1F
100
AcDbEntity
  8
0
  6
Continuous
 62
     7
370
    15
100
AcDbSpline
210
0.0
220
0.0
230
1.0
 70
     8
 71
     3
 72
    11
 73
     7
 74
     0
 42
0.000000001
 43
0.00000001
 40
0.0
 40
0.0
 40
0.0
 40
0.0
 40
0.3023148340551841
 40
0.5678045868191162
 40
0.8007725332405705
 40
1.0
 40
1.0
 40
1.0
 40
1.0
 10
1.956930718550029
 20
7.932039412967962
 30
0.0
 10
1.954214101396525
 20
7.932036408360966
 30
0.0
 10
1.949111779225627
 20
7.93203076513926
 30
0.0
 10
1.941924461137981
 20
7.932343409587816
 30
0.0
 10
1.935660376558678
 20
7.93269417361507
 30
0.0
 10
1.931818392401895
 20
7.933270393846953
 30
0.0
 10
1.930047367658128
 20
7.933536011883593
 30
0.0
  0
SPLINE
  5
FD
330
1F
100
AcDbEntity
  8
0
  6
Continuous
 62
     7
370
    15
100
AcDbSpline
210
0.0
220
0.0
230
1.0
 70
     8
 71
     3
 72
    23
 73
    19
 74
     0
 42
0.000000001
 43
0.00000001
 40
0.0
 40
0.0
 40
0.0
 40
0.0
 40
0.0721617177428983
 40
0.139874304063106
 40
0.203755507363853
 40
0.2640088645604711
 40
0.3228233325250074
 40
0.3799489937610259
 40
0.4369058849923746
 40
0.4951768596633399
 40
0.5541575487825882
 40
0.613428003237433
 40
0.6736813604340517
 40
0.7352950341192277
 40
0.7979382121908425
 40
0.8632166228787841
 40
0.9302973290586659
 40
1.0
 40
1.0
 40
1.0
 40
1.0
 10
2.023335366732498
 20
7.98613869228857
 30
0.0
 10
2.023213110883352
 20
7.983806462291588
 30
0.0
 10
2.022976136870652
 20
7.979285795961204
 30
0.0
 10
2.021907945773703
 20
7.972769273215246
 30
0.0
 10
2.020326668384163
 20
7.966757848509613
 30
0.0
 10
2.018145983431354
 20
7.961240804272764
 30
0.0
 10
2.015382981778894
 20
7.956236021907544
 30
0.0
 10
2.012011903318443
 20
7.951754240015266
 30
0.0
 10
2.008098654419449
 20
7.947755982817697
 30
0.0
 10
2.0035759283242
 20
7.944369412570864
 30
0.0
 10
1.998704511777009
 20
7.941379379399644
 30
0.0
 10
1.993515596197089
 20
7.938830003742538
 30
0.0
 10
1.988065745799482
 20
7.936666050704138
 30
0.0
 10
1.982362519020819
 20
7.934886850912461
 30
0.0
 10
1.976370952368439
 20
7.93355799745347
 30
0.0
 10
1.970128228182193
 20
7.932638315421646
 30
0.0
 10
1.963612208440883
 20
7.932047807120679
 30
0.0
 10
1.959186162419626
 20
7.932042246548585
 30
0.0
 10
1.956930718550029
 20
7.932039412967962
 30
0.0
  0
SPLINE
  5
FE
330
1F
100
AcDbEntity
  8
0
  6
Continuous
 62
     7
370
    15
100
AcDbSpline
210
0.0
220
0.0
230
1.0
 70
     8
 71
     3
 72
    23
 73
    19
 74
     0
 42
0.000000001
 43
0.00000001
 40
0.0
 40
0.0
 40
0.0
 40
0.0
 40
0.0666128138247589
 40
0.1320793361022878
 40
0.1958004465461199
 40
0.2578960961526695
 40
0.3189270178863702
 40
0.3796348799797291
 40
0.4398140713784502
 40
0.5003137282672316
 40
0.5594103037128124
 40
0.6177252917066277
 40
0.6755719239627503
 40
0.7348733408386405
 40
0.7959123171558907
 40
0.8596874100334865
 40
0.9276398872427304
 40
1.0
 40
1.0
 40
1.0
 40
1.0
 10
1.956192487357488
 20
8.039572762405106
 30
0.0
 10
1.958342181397814
 20
8.039538221810036
 30
0.0
 10
1.962604576954565
 20
8.03946973500392
 30
0.0
 10
1.968914003189667
 20
8.039003288021302
 30
0.0
 10
1.975012672923694
 20
8.03802021297216
 30
0.0
 10
1.980921850164154
 20
8.036790706896607
 30
0.0
 10
1.986596066179251
 20
8.035033787842933
 30
0.0
 10
1.992089308286165
 20
8.032947123474697
 30
0.0
 10
1.997374964057124
 20
8.030418996977746
 30
0.0
 10
2.00245350038162
 20
8.027602064531617
 30
0.0
 10
2.007161247027125
 20
8.024285845303153
 30
0.0
 10
2.011283641308706
 20
8.02038341046279
 30
0.0
 10
2.014821255651333
 20
8.01593901435609
 30
0.0
 10
2.017767680405453
 20
8.010979709241985
 30
0.0
 10
2.02010125680187
 20
8.005496777261186
 30
0.0
 10
2.02181852738587
 20
7.99950301115007
 30
0.0
 10
2.022917277701521
 20
7.992993191493217
 30
0.0
 10
2.023193115427856
 20
7.988470878455344
 30
0.0
 10
2.023335366732498
 20
7.98613869228857
 30
0.0
  0
LINE
  5
FF
330
1F
100
AcDbEntity
  8
0
  6
Continuous
 62
     7
370
    15
100
AcDbLine
 10
1.9577067328
 20
8.0738837324
 30
0.0
 11
1.9300473677
 21
8.0739391079
 31
0.0
  0
LINE
  5
100
330
1F
100
AcDbEntity
  8
0
  6
Continuous
 62
     7
370
    15
100
AcDbLine
 10
1.9300473677
 20
8.0739391079
 30
0.0
 11
1.9300473677
 21
8.1614555551
 31
0.0
  0
SPLINE
  5
101
330
1F
100
AcDbEntity
  8
0
  6
Continuous
 62
     7
370
    15
100
AcDbSpline
210
0.0
220
0.0
230
1.0
 70
     8
 71
     3
 72
    19
 73
    15
 74
     0
 42
0.000000001
 43
0.00000001
 40
0.0
 40
0.0
 40
0.0
 40
0.0
 40
0.1325140023652496
 40
0.2582881104273235
 40
0.3795234019853609
 40
0.4980906745203017
 40
0.555828940199092
 40
0.613297658747003
 40
0.6704036692717567
 40
0.7289314271568167
 40
0.7900694861099011
 40
0.854862910672495
 40
0.9247427805973295
 40
1.0
 40
1.0
 40
1.0
 40
1.0
 10
1.958815324591936
 20
8.163679667354051
 30
0.0
 10
1.962441627845228
 20
8.163658512140671
 30
0.0
 10
1.96950979421566
 20
8.163617277705125
 30
0.0
 10
1.979813498949249
 20
8.162054403650941
 30
0.0
 10
1.989406594951889
 20
8.159175242511353
 30
0.0
 10
1.996902955635681
 20
8.155928599044556
 30
0.0
 10
2.002340341988433
 20
8.152534461474149
 30
0.0
 10
2.0059046252559
 20
8.149418804724398
 30
0.0
 10
2.008929687632012
 20
8.145755352178567
 30
0.0
 10
2.011442038548784
 20
8.141607063593556
 30
0.0
 10
2.013433473565057
 20
8.13695857525337
 30
0.0
 10
2.014944504626072
 20
8.131808560992669
 30
0.0
 10
2.015850355115669
 20
8.126126744475815
 30
0.0
 10
2.016107199189337
 20
8.122165838882404
 30
0.0
 10
2.016240379280614
 20
8.120112010032331
 30
0.0
  0
SPLINE
  5
102
330
1F
100
AcDbEntity
  8
0
  6
Continuous
 62
     7
370
    15
100
AcDbSpline
210
0.0
220
0.0
230
1.0
 70
     8
 71
     3
 72
    15
 73
    11
 74
     0
 42
0.000000001
 43
0.00000001
 40
0.0
 40
0.0
 40
0.0
 40
0.0
 40
0.0745287191469104
 40
0.1618735710733362
 40
0.2644066618715463
 40
0.3817928022574735
 40
0.5144770247918796
 40
0.6623568288188653
 40
0.8235086758132422
 40
1.0
 40
1.0
 40
1.0
 40
1.0
 10
1.930047367658128
 20
8.161455555076655
 30
0.0
 10
1.930747752982496
 20
8.161615009776746
 30
0.0
 10
1.932268963528989
 20
8.161961339379937
 30
0.0
 10
1.934793556446213
 20
8.162311295252511
 30
0.0
 10
1.937723432284356
 20
8.162738889016156
 30
0.0
 10
1.941115057271043
 20
8.16296194267657
 30
0.0
 10
1.944936283127863
 20
8.16326291776303
 30
0.0
 10
1.949186681246766
 20
8.163490033080706
 30
0.0
 10
1.953863726515209
 20
8.163566360287874
 30
0.0
 10
1.957115547375516
 20
8.163640771473052
 30
0.0
 10
1.958815324591936
 20
8.163679667354051
 30
0.0
  0
SPLINE
  5
103
330
1F
100
AcDbEntity
  8
0
  6
Continuous
 62
     7
370
    15
100
AcDbSpline
210
0.0
220
0.0
230
1.0
 70
     8
 71
     3
 72
    23
 73
    19
 74
     0
 42
0.000000001
 43
0.00000001
 40
0.0
 40
0.0
 40
0.0
 40
0.0
 40
0.0598317676307574
 40
0.1176286567328878
 40
0.1739449098945077
 40
0.2292560331616083
 40
0.2838908238026404
 40
0.3396456474757541
 40
0.3964945733864476
 40
0.4552166339979897
 40
0.5154478586528032
 40
0.5766609327247316
 40
0.6401775484317281
 40
0.7056353248993937
 40
0.7735314259512343
 40
0.8456174898366869
 40
0.920994679112631
 40
1.0
 40
1.0
 40
1.0
 40
1.0
 10
2.016240379280614
 20
8.120112010032331
 30
0.0
 10
2.016163539924565
 20
8.118445774148976
 30
0.0
 10
2.01601247451911
 20
8.115169971067761
 30
0.0
 10
2.015205754331448
 20
8.110383245368993
 30
0.0
 10
2.01403164878684
 20
8.105801381482838
 30
0.0
 10
2.012222014977788
 20
8.10152141768631
 30
0.0
 10
2.009965534299773
 20
8.097488686809982
 30
0.0
 10
2.007320854609181
 20
8.093642553163393
 30
0.0
 10
2.004131377798473
 20
8.090073602400691
 30
0.0
 10
2.000450241437374
 20
8.086835190279915
 30
0.0
 10
1.996435983724166
 20
8.083806605248794
 30
0.0
 10
1.991935506357138
 20
8.081275597892112
 30
0.0
 10
1.987122126672565
 20
8.079050437072931
 30
0.0
 10
1.981941922637839
 20
8.077227897527303
 30
0.0
 10
1.976400753915845
 20
8.075772939393177
 30
0.0
 10
1.97048476987249
 20
8.074748555782387
 30
0.0
 10
1.964207182650384
 20
8.074068661562672
 30
0.0
 10
1.95990723367628
 20
8.073946333737297
 30
0.0
 10
1.957706732802579
 20
8.073883732416155
 30
0.0
  0
ENDSEC
  0
SECTION
  2
OBJECTS
  0
DICTIONARY
  5
C
330
0
100
AcDbDictionary
281
     1
  3
ACAD_GROUP
350
D
  3
ACAD_LAYOUT
350
1A
  3
ACAD_MLINESTYLE
350
17
  3
ACAD_PLOTSETTINGS
350
19
  3
ACAD_PLOTSTYLENAME
350
E
  3
ACAD_SCALELIST
350
47
  0
DICTIONARY
  5
D
102
{ACAD_REACTORS
330
C
102
}
330
C
100
AcDbDictionary
281
     1
  0
DICTIONARY
  5
1A
102
{ACAD_REACTORS
330
C
102
}
330
C
100
AcDbDictionary
281
     1
  3
Layout1
350
1E
  3
Layout2
350
26
  3
Model
350
22
  0
DICTIONARY
  5
17
102
{ACAD_REACTORS
330
C
102
}
330
C
100
AcDbDictionary
281
     1
  3
Standard
350
18
  0
DICTIONARY
  5
19
102
{ACAD_REACTORS
330
C
102
}
330
C
100
AcDbDictionary
281
     1
  0
ACDBDICTIONARYWDFLT
  5
E
102
{ACAD_REACTORS
330
C
102
}
330
C
100
AcDbDictionary
281
     1
  3
Normal
350
F
100
AcDbDictionaryWithDefault
340
F
  0
DICTIONARY
  5
47
102
{ACAD_REACTORS
330
C
102
}
330
C
100
AcDbDictionary
281
     1
  3
A0
350
48
  3
A1
350
49
  3
A2
350
4A
  3
A3
350
4B
  3
A4
350
4C
  3
A5
350
4D
  3
A6
350
4E
  3
A7
350
4F
  3
A8
350
50
  3
A9
350
51
  3
B0
350
52
  3
B1
350
53
  3
B2
350
54
  3
B3
350
55
  3
B4
350
56
  3
B5
350
57
  3
B6
350
58
  3
B7
350
59
  3
B8
350
5A
  3
B9
350
5B
  3
C0
350
5C
  3
C1
350
5D
  3
C2
350
5E
  3
C3
350
5F
  3
C4
350
60
  3
C5
350
61
  3
C6
350
62
  3
C7
350
63
  3
C8
350
64
  3
C9
350
65
  3
D0
350
66
  3
D1
350
67
  3
D2
350
68
  0
LAYOUT
  5
1E
102
{ACAD_REACTORS
330
1A
102
}
330
1A
100
AcDbPlotSettings
  1

  2
none_device
  4

  6

 40
0.0
 41
0.0
 42
0.0
 43
0.0
 44
0.0
 45
0.0
 46
0.0
 47
0.0
 48
0.0
 49
0.0
140
0.0
141
0.0
142
1.0
143
1.0
 70
   688
 72
     0
 73
     0
 74
     5
  7

 75
    16
147
1.0
148
0.0
149
0.0
100
AcDbLayout
  1
Layout1
 70
     1
 71
     1
 10
0.0
 20
0.0
 11
12.0
 21
9.0
 12
0.0
 22
0.0
 32
0.0
 14
1.0000000000E+20
 24
1.0000000000E+20
 34
1.0000000000E+20
 15
-1.0000000000E+20
 25
-1.0000000000E+20
 35
-1.0000000000E+20
146
0.0
 13
0.0
 23
0.0
 33
0.0
 16
1.0
 26
0.0
 36
0.0
 17
0.0
 27
1.0
 37
0.0
 76
     0
330
1B
  0
LAYOUT
  5
26
102
{ACAD_REACTORS
330
1A
102
}
330
1A
100
AcDbPlotSettings
  1

  2
none_device
  4

  6

 40
0.0
 41
0.0
 42
0.0
 43
0.0
 44
0.0
 45
0.0
 46
0.0
 47
0.0
 48
0.0
 49
0.0
140
0.0
141
0.0
142
1.0
143
1.0
 70
   688
 72
     0
 73
     0
 74
     5
  7

 75
    16
147
1.0
148
0.0
149
0.0
100
AcDbLayout
  1
Layout2
 70
     1
 71
     2
 10
0.0
 20
0.0
 11
0.0
 21
0.0
 12
0.0
 22
0.0
 32
0.0
 14
0.0
 24
0.0
 34
0.0
 15
0.0
 25
0.0
 35
0.0
146
0.0
 13
0.0
 23
0.0
 33
0.0
 16
1.0
 26
0.0
 36
0.0
 17
0.0
 27
1.0
 37
0.0
 76
     0
330
23
  0
LAYOUT
  5
22
102
{ACAD_REACTORS
330
1A
102
}
330
1A
100
AcDbPlotSettings
  1

  2
none_device
  4
Letter_(8.50_x_11.00_Inches)
  6

 40
6.35
 41
6.35
 42
6.35000508
 43
6.35000508
 44
215.9
 45
279.4
 46
0.0
 47
0.0
 48
0.0
 49
0.0
140
0.0
141
0.0
142
1.0
143
1.0
 70
  1712
 72
     0
 73
     0
 74
     0
  7

 75
     0
147
1.0
148
0.0
149
0.0
100
AcDbLayout
  1
Model
 70
     1
 71
     0
 10
0.0
 20
0.0
 11
24.0
 21
18.0
 12
0.0
 22
0.0
 32
0.0
 14
0.0
 24
0.0
 34
0.0
 15
24.0
 25
18.0
 35
0.0
146
0.0
 13
0.0
 23
0.0
 33
0.0
 16
1.0
 26
0.0
 36
0.0
 17
0.0
 27
1.0
 37
0.0
 76
     0
330
1F
331
29
  0
MLINESTYLE
  5
18
102
{ACAD_REACTORS
330
17
102
}
330
17
100
AcDbMlineStyle
  2
Standard
 70
     0
  3

 62
   256
 51
90.0
 52
90.0
 71
     2
 49
0.5
 62
   256
  6
BYLAYER
 49
-0.5
 62
   256
  6
BYLAYER
  0
ACDBPLACEHOLDER
  5
F
102
{ACAD_REACTORS
330
E
102
}
330
E
  0
SCALE
  5
48
102
{ACAD_REACTORS
330
47
102
}
330
47
100
AcDbScale
 70
     0
300
1:1
140
1.0
141
1.0
290
     1
  0
SCALE
  5
49
102
{ACAD_REACTORS
330
47
102
}
330
47
100
AcDbScale
 70
     0
300
1:2
140
1.0
141
2.0
290
     0
  0
SCALE
  5
4A
102
{ACAD_REACTORS
330
47
102
}
330
47
100
AcDbScale
 70
     0
300
1:4
140
1.0
141
4.0
290
     0
  0
SCALE
  5
4B
102
{ACAD_REACTORS
330
47
102
}
330
47
100
AcDbScale
 70
     0
300
1:5
140
1.0
141
5.0
290
     0
  0
SCALE
  5
4C
102
{ACAD_REACTORS
330
47
102
}
330
47
100
AcDbScale
 70
     0
300
1:8
140
1.0
141
8.0
290
     0
  0
SCALE
  5
4D
102
{ACAD_REACTORS
330
47
102
}
330
47
100
AcDbScale
 70
     0
300
1:10
140
1.0
141
10.0
290
     0
  0
SCALE
  5
4E
102
{ACAD_REACTORS
330
47
102
}
330
47
100
AcDbScale
 70
     0
300
1:16
140
1.0
141
16.0
290
     0
  0
SCALE
  5
4F
102
{ACAD_REACTORS
330
47
102
}
330
47
100
AcDbScale
 70
     0
300
1:20
140
1.0
141
20.0
290
     0
  0
SCALE
  5
50
102
{ACAD_REACTORS
330
47
102
}
330
47
100
AcDbScale
 70
     0
300
1:30
140
1.0
141
30.0
290
     0
  0
SCALE
  5
51
102
{ACAD_REACTORS
330
47
102
}
330
47
100
AcDbScale
 70
     0
300
1:40
140
1.0
141
40.0
290
     0
  0
SCALE
  5
52
102
{ACAD_REACTORS
330
47
102
}
330
47
100
AcDbScale
 70
     0
300
1:50
140
1.0
141
50.0
290
     0
  0
SCALE
  5
53
102
{ACAD_REACTORS
330
47
102
}
330
47
100
AcDbScale
 70
     0
300
1:100
140
1.0
141
100.0
290
     0
  0
SCALE
  5
54
102
{ACAD_REACTORS
330
47
102
}
330
47
100
AcDbScale
 70
     0
300
2:1
140
2.0
141
1.0
290
     0
  0
SCALE
  5
55
102
{ACAD_REACTORS
330
47
102
}
330
47
100
AcDbScale
 70
     0
300
4:1
140
4.0
141
1.0
290
     0
  0
SCALE
  5
56
102
{ACAD_REACTORS
330
47
102
}
330
47
100
AcDbScale
 70
     0
300
8:1
140
8.0
141
1.0
290
     0
  0
SCALE
  5
57
102
{ACAD_REACTORS
330
47
102
}
330
47
100
AcDbScale
 70
     0
300
10:1
140
10.0
141
1.0
290
     0
  0
SCALE
  5
58
102
{ACAD_REACTORS
330
47
102
}
330
47
100
AcDbScale
 70
     0
300
100:1
140
100.0
141
1.0
290
     0
  0
SCALE
  5
59
102
{ACAD_REACTORS
330
47
102
}
330
47
100
AcDbScale
 70
     0
300
1/128" = 1'-0"
140
0.0078125
141
12.0
290
     0
  0
SCALE
  5
5A
102
{ACAD_REACTORS
330
47
102
}
330
47
100
AcDbScale
 70
     0
300
1/64" = 1'-0"
140
0.015625
141
12.0
290
     0
  0
SCALE
  5
5B
102
{ACAD_REACTORS
330
47
102
}
330
47
100
AcDbScale
 70
     0
300
1/32" = 1'-0"
140
0.03125
141
12.0
290
     0
  0
SCALE
  5
5C
102
{ACAD_REACTORS
330
47
102
}
330
47
100
AcDbScale
 70
     0
300
1/16" = 1'-0"
140
0.0625
141
12.0
290
     0
  0
SCALE
  5
5D
102
{ACAD_REACTORS
330
47
102
}
330
47
100
AcDbScale
 70
     0
300
3/32" = 1'-0"
140
0.09375
141
12.0
290
     0
  0
SCALE
  5
5E
102
{ACAD_REACTORS
330
47
102
}
330
47
100
AcDbScale
 70
     0
300
1/8" = 1'-0"
140
0.125
141
12.0
290
     0
  0
SCALE
  5
5F
102
{ACAD_REACTORS
330
47
102
}
330
47
100
AcDbScale
 70
     0
300
3/16" = 1'-0"
140
0.1875
141
12.0
290
     0
  0
SCALE
  5
60
102
{ACAD_REACTORS
330
47
102
}
330
47
100
AcDbScale
 70
     0
300
1/4" = 1'-0"
140
0.25
141
12.0
290
     0
  0
SCALE
  5
61
102
{ACAD_REACTORS
330
47
102
}
330
47
100
AcDbScale
 70
     0
300
3/8" = 1'-0"
140
0.375
141
12.0
290
     0
  0
SCALE
  5
62
102
{ACAD_REACTORS
330
47
102
}
330
47
100
AcDbScale
 70
     0
300
1/2" = 1'-0"
140
0.5
141
12.0
290
     0
  0
SCALE
  5
63
102
{ACAD_REACTORS
330
47
102
}
330
47
100
AcDbScale
 70
     0
300
3/4" = 1'-0"
140
0.75
141
12.0
290
     0
  0
SCALE
  5
64
102
{ACAD_REACTORS
330
47
102
}
330
47
100
AcDbScale
 70
     0
300
1" = 1'-0"
140
1.0
141
12.0
290
     0
  0
SCALE
  5
65
102
{ACAD_REACTORS
330
47
102
}
330
47
100
AcDbScale
 70
     0
300
1-1/2" = 1'-0"
140
1.5
141
12.0
290
     0
  0
SCALE
  5
66
102
{ACAD_REACTORS
330
47
102
}
330
47
100
AcDbScale
 70
     0
300
3" = 1'-0"
140
3.0
141
12.0
290
     0
  0
SCALE
  5
67
102
{ACAD_REACTORS
330
47
102
}
330
47
100
AcDbScale
 70
     0
300
6" = 1'-0"
140
6.0
141
12.0
290
     0
  0
SCALE
  5
68
102
{ACAD_REACTORS
330
47
102
}
330
47
100
AcDbScale
 70
     0
300
1'-0" = 1'-0"
140
12.0
141
12.0
290
     0
  0
ENDSEC
  0
EOF
